<svg width="100" height="100" viewBox="0 0 100 100" fill="none" xmlns="http://www.w3.org/2000/svg">
<rect width="100" height="100" fill="none"/>
<path d="M17.1836 86.6772C15.6393 86.6772 14.2881 86.0981 13.1298 84.9398C11.9716 83.7816 11.3925 82.4303 11.3925 80.886V34.557C11.3925 33.0127 11.9716 31.6614 13.1298 30.5032C14.2881 29.345 15.6393 28.7659 17.1836 28.7659H34.557V19.114C34.557 17.5697 35.1361 16.2184 36.2943 15.0602C37.4526 13.902 38.8038 13.3229 40.3481 13.3229H59.6519C61.1962 13.3229 62.5474 13.902 63.7057 15.0602C64.8639 16.2184 65.443 17.5697 65.443 19.114V28.7659H82.8164C84.3607 28.7659 85.712 29.345 86.8702 30.5032C88.0284 31.6614 88.6075 33.0127 88.6075 34.557V80.886C88.6075 82.4303 88.0284 83.7816 86.8702 84.9398C85.712 86.0981 84.3607 86.6772 82.8164 86.6772H17.1836ZM17.1836 80.886H82.8164V34.557H17.1836V80.886ZM40.3481 28.7659H59.6519V19.114H40.3481V28.7659Z" fill="#115B6A"/>
<path d="M14.5139 33.2017H84.9932V54.559L49.7535 62.7734L14.5139 54.559V33.2017Z" fill="#115B6A"/>
<path d="M14.5139 57.8447L49.7535 65.4099L84.9932 57.8447V82.9807H49.7535H14.5139V57.8447Z" fill="#115B6A"/>
<rect x="44.0856" y="54.3947" width="11.8287" height="15.7716" rx="5.91434" fill="#E2DBBE"/>
</svg>
