<?xml version="1.0" encoding="UTF-8" standalone="no"?>
<!-- Created with Inkscape (http://www.inkscape.org/) -->

<svg
   width="1000.0001"
   height="1000.0001"
   viewBox="0 0 264.58333 264.58333"
   version="1.1"
   id="svg5"
   inkscape:version="1.2.2 (732a01da63, 2022-12-09)"
   sodipodi:docname="Default.svg"
   xml:space="preserve"
   inkscape:export-filename="game-audio-icon.svg"
   inkscape:export-xdpi="96"
   inkscape:export-ydpi="96"
   xmlns:inkscape="http://www.inkscape.org/namespaces/inkscape"
   xmlns:sodipodi="http://sodipodi.sourceforge.net/DTD/sodipodi-0.dtd"
   xmlns="http://www.w3.org/2000/svg"
   xmlns:svg="http://www.w3.org/2000/svg"><sodipodi:namedview
     id="namedview7"
     pagecolor="#636363"
     bordercolor="#eeeeee"
     borderopacity="1"
     inkscape:showpageshadow="0"
     inkscape:pageopacity="0"
     inkscape:pagecheckerboard="0"
     inkscape:deskcolor="#505050"
     inkscape:document-units="mm"
     showgrid="false"
     inkscape:zoom="0.27860007"
     inkscape:cx="5.3840618"
     inkscape:cy="933.23738"
     inkscape:window-width="1920"
     inkscape:window-height="986"
     inkscape:window-x="-11"
     inkscape:window-y="-11"
     inkscape:window-maximized="1"
     inkscape:current-layer="layer1" /><defs
     id="defs2" /><path
     style="display:none;fill:#188fa7;fill-opacity:1;stroke-width:0.32286"
     d="m 39.848828,251.52809 c -1.18665,-0.52805 -2.263065,-1.66585 -2.72114,-2.87632 -0.240119,-0.63452 -0.344155,-23.26694 -0.344155,-74.86836 V 99.824484 h 5.164647 5.164647 l -0.08271,74.545306 c -0.08208,73.97561 -0.08764,74.55193 -0.728037,75.41185 -1.452949,1.95101 -4.276421,2.71513 -6.453251,1.74645 z m 88.690712,-0.34958 c -2.56004,-1.53645 -2.45878,0.001 -2.38808,-36.26512 l 0.01,-4.92661 h 5.16998 5.16998 l -0.088,19.35992 c -0.0867,19.06805 -0.0982,19.37366 -0.76304,20.2718 -1.80997,2.44517 -4.61143,3.05981 -7.1104,1.56001 z m 89.70269,0.34153 c -0.55385,-0.24135 -1.42504,-0.98755 -1.93598,-1.65823 l -0.92898,-1.21942 -0.084,-66.25177 c -0.0462,-36.43848 -0.0286,-66.39715 0.0391,-66.57484 0.0771,-0.20252 2.06621,-0.28715 5.33102,-0.22683 l 5.20799,0.0962 -0.0845,66.31553 -0.0845,66.31554 -0.85853,1.29887 c -1.42731,2.15938 -4.18903,2.95627 -6.60171,1.90492 z M 112.45119,204.43821 c -5.81705,-1.11064 -11.14086,-6.47133 -12.39189,-12.47774 -0.448191,-2.15186 -0.467916,-13.92635 -0.0272,-16.25296 0.4065,-2.14611 1.90463,-5.40923 3.28396,-7.1529 1.38021,-1.74478 4.36242,-3.90726 6.63937,-4.81439 1.66372,-0.66281 2.55218,-0.75304 8.94575,-0.90856 l 7.09858,-0.17267 0.16133,-74.521637 0.16133,-74.521633 0.66526,-0.892116 c 1.25778,-1.686672 2.29806,-2.224265 4.30413,-2.224265 1.519,0 2.06405,0.158293 2.99623,0.87017 2.40219,1.834484 2.19826,-5.3346738 2.19826,77.277582 v 74.173429 l 6.37258,0.004 c 4.29015,0.003 6.89979,0.14504 7.9859,0.43596 5.18861,1.38977 9.42281,5.40864 11.10556,10.5408 0.60562,1.84708 0.67163,2.81762 0.67163,9.87588 0,8.98647 -0.28438,10.51292 -2.60742,13.99596 -1.55823,2.33632 -3.18966,3.79723 -5.79015,5.18497 -3.50087,1.86822 -4.51423,1.95192 -23.22337,1.91821 -9.31688,-0.0168 -17.6643,-0.16885 -18.54981,-0.33792 z m 37.26753,-11.00808 c 2.34854,-1.60036 2.40611,-1.81182 2.5125,-9.22989 0.0922,-6.42883 0.0679,-6.73545 -0.64532,-8.1344 -0.5417,-1.06254 -1.13188,-1.65168 -2.19313,-2.18923 l -1.45198,-0.73548 -17.15843,0.0894 c -16.83364,0.0877 -17.17568,0.10215 -18.06911,0.76517 -0.50087,0.3717 -1.24484,1.16753 -1.65328,1.76852 -0.72776,1.07083 -0.74067,1.23506 -0.64532,8.20824 0.0923,6.74972 0.13408,7.16718 0.813,8.12014 1.49327,2.09598 1.03313,2.04896 20.12897,2.05708 l 17.29539,0.007 1.06671,-0.72687 z m 50.637,-83.87687 c -5.40604,-1.73211 -9.41706,-5.87134 -10.8362,-11.182531 -0.64583,-2.417093 -0.60539,-15.863044 0.0554,-18.402931 1.46722,-5.639925 6.20485,-10.097744 12.04986,-11.338191 1.36738,-0.290189 4.19874,-0.455468 7.86394,-0.45906 l 5.72726,-0.0056 V 41.402053 14.639169 l 0.7401,-1.423802 c 0.84568,-1.626879 2.88363,-2.877556 4.68893,-2.877556 1.48604,0 3.48388,1.182019 4.34745,2.572147 l 0.71005,1.143003 0.0878,27.055989 0.0878,27.055989 h 5.58019 c 3.0691,0 6.44175,0.157558 7.49476,0.350125 4.62584,0.84595 9.22569,4.310651 11.2734,8.491355 1.54604,3.15647 1.77303,4.751206 1.77303,12.456474 0,7.275021 -0.27341,9.077247 -1.86553,12.296787 -1.07104,2.16583 -4.18319,5.34792 -6.39079,6.53441 -3.42313,1.83978 -3.80409,1.86977 -23.51307,1.85083 -16.41124,-0.0158 -18.24759,-0.0704 -19.87436,-0.59166 z m 38.63324,-10.566123 c 0.50086,-0.371699 1.23736,-1.15642 1.63665,-1.743821 0.69782,-1.026554 0.72599,-1.340129 0.72599,-8.0797 0,-6.740494 -0.0281,-7.052884 -0.72599,-8.076579 -0.39929,-0.585685 -1.23192,-1.334059 -1.85027,-1.663056 -1.05397,-0.560762 -2.20634,-0.598175 -18.42472,-0.598175 h -17.30043 l -1.0667,0.726877 c -2.33679,1.592349 -2.40511,1.837155 -2.52217,9.037443 -0.0884,5.437275 -0.019,6.714964 0.42845,7.888041 0.54758,1.435547 1.7746,2.556224 3.32033,3.032551 0.48069,0.148128 8.52267,0.242977 17.87108,0.210778 16.69448,-0.0575 17.01333,-0.07058 17.90778,-0.734359 z M 21.382901,93.658545 c -4.154343,-1.317903 -8.133957,-5.062713 -9.815801,-9.23665 -0.732655,-1.818278 -0.757904,-2.182279 -0.757904,-10.926523 0,-8.711934 0.0276,-9.114017 0.748332,-10.900904 1.597889,-3.961611 5.096846,-7.450864 9.054414,-9.029296 1.623045,-0.647335 2.557227,-0.741241 8.911683,-0.89581 l 7.098577,-0.172668 0.161331,-19.408806 0.161332,-19.408807 0.881772,-1.157208 c 2.201243,-2.8888468 6.221928,-2.7930179 8.455505,0.201528 0.650249,0.871784 0.668902,1.330687 0.826594,20.332604 l 0.161331,19.440689 7.098577,0.185781 c 3.904217,0.102176 7.535506,0.336398 8.069536,0.520486 4.739051,1.633645 8.519085,5.343265 10.22627,10.035775 0.58773,1.61548 0.694012,2.782073 0.816692,8.96441 0.157853,7.954884 -0.173777,10.528588 -1.766826,13.711891 -1.159569,2.31711 -4.29753,5.506726 -6.536476,6.644072 -3.470401,1.76291 -3.523595,1.766893 -23.393037,1.751432 -17.39443,-0.01354 -18.500771,-0.04889 -20.401902,-0.651996 z m 39.173591,-10.50118 c 0.500902,-0.3717 1.237424,-1.15642 1.636719,-1.743821 0.696516,-1.024645 0.725991,-1.346112 0.725991,-7.918172 0,-6.572059 -0.02949,-6.893526 -0.725991,-7.918172 -0.399295,-0.5874 -1.135817,-1.372121 -1.636716,-1.74382 -0.893668,-0.663164 -1.233823,-0.677485 -18.164363,-0.764804 -19.2458,-0.09926 -18.642844,-0.162175 -20.388624,2.127363 -0.865778,1.13544 -0.869497,1.164057 -0.970132,7.465602 -0.116153,7.273202 -0.02338,8.036097 1.146518,9.428141 1.62408,1.932466 1.210314,1.895169 20.146163,1.815956 17.010767,-0.07116 17.335953,-0.08451 18.230435,-0.748273 z"
     id="path954" /><path
     style="fill:#188fa7;fill-opacity:1;stroke-width:0.554107"
     d="m 193.07578,240.48334 c -1.89904,-2.09841 -12.05851,-18.59626 -12.05851,-19.58169 0,-0.5949 1.05461,-1.75306 2.5049,-2.75089 1.54276,-1.06145 2.35602,-1.97621 2.11734,-2.38158 -0.21313,-0.36199 -1.79366,-2.77763 -3.51227,-5.36808 -10.43013,-15.72129 -13.46719,-23.9118 -13.45794,-36.29404 0.006,-7.64027 0.74987,-10.7949 4.81837,-20.42543 1.39846,-3.31025 2.54264,-6.24009 2.54264,-6.51077 0,-0.27067 -1.18441,-0.49645 -2.63201,-0.50176 -8.22453,-0.0301 -15.68337,-3.25796 -21.95442,-9.50102 l -4.3615,-4.34204 h -14.82657 -14.82658 l -4.3615,4.34204 c -6.27105,6.24306 -13.729894,9.47096 -21.954407,9.50102 -1.447603,0.006 -2.632019,0.23109 -2.632019,0.50176 0,0.27068 1.139137,3.20052 2.531402,6.51077 4.283642,10.18476 4.809603,12.36218 4.866884,20.14836 0.09244,12.55815 -2.948744,20.69451 -13.875792,37.12374 l -3.500109,5.26254 2.004807,1.68315 c 1.10264,0.92571 1.913848,2.05485 1.802688,2.50917 -0.111162,0.45432 -2.916241,5.12091 -6.23351,10.37017 -4.851422,7.67694 -6.271961,9.54414 -7.261031,9.54414 -0.6763,0 -9.182848,-4.9424 -18.903447,-10.98311 -27.038608,-16.80273 -28.186098,-17.55044 -28.365801,-18.48357 -0.205689,-1.06807 11.853608,-20.19859 13.013034,-20.64351 0.457005,-0.17537 2.06068,0.36803 3.563726,1.20758 3.249818,1.8152 3.165754,1.88849 5.240155,-4.56877 3.046728,-9.48392 3.011831,-18.43762 -0.106032,-27.21097 -2.583914,-7.27088 -4.05191,-30.72132 -2.476378,-39.55898 2.092953,-11.74007 11.418627,-31.377197 19.505223,-41.072295 3.36069,-4.029154 6.761686,-4.803547 9.270341,-2.110818 2.271043,2.43768 1.815916,9.026146 -1.061981,15.373204 l -1.597857,3.524006 3.194319,-2.956482 c 3.748765,-3.469645 8.592375,-6.185371 13.148374,-7.372058 4.887311,-1.272979 93.143691,-1.272979 98.030991,0 4.556,1.186687 9.39961,3.902413 13.14838,7.372058 l 3.19431,2.956482 -1.59785,-3.524006 c -0.87882,-1.938201 -1.86739,-4.982047 -2.19682,-6.76409 -1.23024,-6.65492 1.41061,-11.172941 5.8757,-10.052276 6.32558,1.587618 21.01339,28.701785 24.0241,44.349215 1.64585,8.55388 0.13045,32.50818 -2.53297,40.03806 -3.05122,8.62638 -3.04061,17.61448 0.0321,27.21436 1.90187,5.94188 2.04731,6.11382 4.16198,4.92009 2.91641,-1.64632 3.63391,-1.30703 6.44486,3.04759 7.11511,11.02245 10.0507,16.08311 9.76358,16.83135 -0.36653,0.95518 -0.10273,0.7838 -25.86529,16.80187 -10.93043,6.79607 -20.2908,12.46561 -20.80083,12.59899 -0.51003,0.1333 -1.34108,-0.2147 -1.84678,-0.77348 z M 215.649,223.45769 c 14.63593,-9.11701 19.9385,-12.69433 19.91273,-13.43388 -0.0397,-1.14063 -7.86841,-13.4754 -8.55257,-13.4754 -0.24404,0 -1.65317,0.8116 -3.13139,1.80354 -1.47824,0.99195 -10.5858,6.64351 -20.23903,12.55905 l -17.55134,10.75548 1.79861,2.81746 c 0.98922,1.54959 3.02764,4.7494 4.52981,7.11069 1.50216,2.36129 2.85587,4.29229 3.00825,4.29112 0.15237,-0.001 9.25359,-5.59381 20.22493,-12.42806 z m -142.969618,4.39508 c 2.291118,-3.63898 4.163786,-6.74781 4.161486,-6.90851 -0.0023,-0.1607 -7.153899,-4.65578 -15.892441,-9.98905 -8.738543,-5.33328 -17.853838,-11.00596 -20.256205,-12.60595 -2.402373,-1.59998 -4.450997,-2.90906 -4.55251,-2.90906 -0.646621,0 -9.153114,14.08555 -8.749962,14.4887 1.37965,1.37965 40.371395,25.24121 40.718244,24.91813 0.223145,-0.20787 2.280269,-3.35529 4.571388,-6.99426 z m 5.899523,-19.81063 c 8.899171,-13.75034 12.299664,-21.62905 12.986723,-30.08936 0.572941,-7.05503 -0.404611,-11.88033 -4.458815,-22.00914 -1.978646,-4.94331 -5.134399,-13.70107 -7.012791,-19.46168 -2.382462,-7.30648 -3.865531,-10.97776 -4.904234,-12.14028 -1.767043,-1.97766 -2.480201,-1.70777 -3.931338,1.48786 -1.237599,2.72536 -1.307012,5.98583 -0.231528,10.87526 0.932884,4.24115 1.069811,13.24813 0.246473,16.21288 -0.739168,2.66167 -2.691367,4.02824 -4.766389,3.33655 -2.467839,-0.82261 -3.466585,-2.84632 -4.906079,-9.941 -1.678243,-8.27139 -4.899874,-20.81827 -6.051392,-23.5676 -0.800365,-1.91091 -0.781436,-2.22155 0.286977,-4.70992 1.42015,-3.30757 3.098737,-10.36421 3.599361,-15.13148 0.293921,-2.79887 0.973218,-4.713298 3.047519,-8.588666 2.963734,-5.537051 4.58616,-10.812012 4.064401,-13.214489 l -0.342754,-1.578232 -1.926974,1.855286 c -2.794548,2.690575 -6.730325,8.779884 -10.547792,16.319233 -6.906103,13.639258 -9.107589,21.324798 -9.189476,32.081088 -0.0742,9.74643 1.454971,24.65688 2.913549,28.4091 3.85267,9.91108 3.30351,23.70806 -1.363704,34.26147 l -1.349978,3.05253 3.702574,2.32428 c 17.913211,11.24496 25.437382,15.85431 25.908329,15.87159 0.304759,0.0114 2.207061,-2.53371 4.227338,-5.65528 z M 203.67368,205.5952 c 7.19594,-4.47181 13.75309,-8.59154 14.57145,-9.15496 l 1.48792,-1.0244 -1.37583,-3.11099 c -1.8269,-4.13093 -3.45831,-11.07294 -3.88818,-16.54497 -0.41278,-5.25462 0.37947,-10.68517 2.58541,-17.72194 1.8114,-5.77814 3.09659,-18.57803 2.92093,-29.09065 -0.15876,-9.50081 -2.505,-17.85156 -8.32902,-29.644755 -3.77083,-7.635637 -7.34543,-13.378209 -10.46899,-16.818319 l -2.83536,-3.122717 -0.36047,1.658903 c -0.53984,2.48438 1.0421,7.681809 4.04669,13.295162 2.07429,3.875368 2.75359,5.789796 3.04751,8.588666 0.50063,4.76727 2.17922,11.82391 3.59936,15.13148 1.06841,2.48837 1.08734,2.79901 0.28698,4.70992 -1.15151,2.74933 -4.37315,15.29621 -6.05139,23.5676 -1.4395,7.09468 -2.43824,9.11839 -4.90608,9.941 -2.07502,0.69169 -4.02722,-0.67488 -4.76639,-3.33655 -0.82334,-2.96475 -0.6864,-11.97173 0.24647,-16.21288 1.07548,-4.88943 1.00607,-8.1499 -0.23153,-10.87526 -1.45113,-3.19563 -2.16429,-3.46552 -3.93134,-1.48786 -1.03869,1.16252 -2.52177,4.8338 -4.90423,12.14028 -1.87839,5.76061 -5.0472,14.55112 -7.04181,19.53446 -4.40237,10.9989 -5.23525,15.62196 -4.20647,23.34887 0.92611,6.9559 3.39167,13.31208 8.34529,21.51399 5.55625,9.19976 7.9799,12.82429 8.58344,12.83651 0.27066,0.006 6.3797,-3.64879 13.57564,-8.12059 z M 66.855989,138.11769 c -0.351089,-1.8133 -1.7268,-5.55352 -3.057139,-8.31161 -1.330335,-2.75808 -2.586585,-6.07443 -2.791672,-7.36965 -0.205086,-1.29523 -0.590363,-2.35496 -0.856174,-2.35496 -0.671844,0 -0.697893,-0.13173 1.40423,7.10184 1.038133,3.57231 2.721235,10.3552 3.740226,15.07312 l 1.85271,8.57801 0.173081,-4.70991 c 0.09519,-2.59046 -0.114177,-6.19353 -0.465262,-8.00684 z m 132.178961,4.95925 c 0.83481,-3.96188 2.48335,-10.63579 3.6634,-14.83092 2.3969,-8.52108 2.32431,-8.16455 1.66226,-8.16455 -0.2658,0 -0.64734,1.05973 -0.84786,2.35496 -0.20051,1.29522 -1.45725,4.5991 -2.79275,7.34192 -1.33551,2.74284 -2.69941,6.30833 -3.0309,7.9233 -0.55615,2.70951 -0.87746,13.33501 -0.38736,12.80957 0.11845,-0.12703 0.89838,-3.47242 1.73321,-7.43428 z M 96.865544,141.44772 c 6.490896,-1.37581 12.343556,-5.2518 16.037776,-10.62115 l 1.67428,-2.43348 h 17.67821 17.6782 l 1.67429,2.43348 c 2.04057,2.96586 6.20981,6.71255 9.13279,8.20719 4.47161,2.28651 10.95312,3.57261 14.96946,2.97032 2.31797,-0.3476 2.49814,-0.5065 3.32465,-2.93217 0.48061,-1.41054 0.87387,-2.63737 0.87387,-2.72627 0,-0.0889 -0.90753,0.4542 -2.01672,1.20691 -5.22274,3.54426 -12.0491,-0.0931 -12.0491,-6.42021 0,-8.4149 11.10938,-10.68913 14.85496,-3.04101 l 1.06623,2.17713 0.95315,-2.8041 c 0.52421,-1.54225 1.25188,-3.36232 1.61701,-4.04458 0.5854,-1.09384 0.45207,-1.459 -1.128,-3.08922 -1.38885,-1.43295 -1.85045,-2.45828 -2.05228,-4.55885 -0.47734,-4.96773 2.65475,-8.43214 7.62045,-8.42899 5.85917,0.004 9.60761,6.13044 6.91254,11.29835 -0.71811,1.37701 -0.72756,1.73414 -0.066,2.49348 0.42472,0.48747 1.15126,1.62769 1.61452,2.53382 l 0.8423,1.64754 0.88938,-2.99484 c 1.99628,-6.72224 0.65238,-15.07433 -3.4458,-21.415 -2.71327,-4.197962 -5.94112,-6.958228 -11.15111,-9.535775 l -4.12699,-2.041799 H 132.28454 84.325503 l -4.155806,2.009622 c -5.145032,2.487976 -8.409635,5.28189 -11.17984,9.567952 -4.518875,6.99157 -5.598099,15.85503 -2.874571,23.60826 0.202725,0.57711 0.610443,0.21653 1.333886,-1.17966 1.14831,-2.21616 4.049246,-4.91552 5.28259,-4.91552 0.606237,0 0.788644,-0.88797 0.788644,-3.83917 0,-5.09913 0.50544,-5.58067 5.857709,-5.58067 h 4.116227 v -4.11623 c 0,-5.466897 0.411718,-5.857706 6.171192,-5.857706 6.338849,0 6.573289,0.198319 6.573289,5.560576 v 4.41336 h 3.915187 c 5.90213,0 6.05874,0.16236 6.05874,6.28091 0,3.25409 -0.24344,5.37717 -0.66493,5.79865 -0.40349,0.4035 -2.36418,0.66493 -4.98696,0.66493 h -4.322037 v 4.32203 c 0,2.62278 -0.26143,4.58347 -0.664942,4.98697 -0.419742,0.41974 -2.524257,0.66492 -5.707299,0.66492 -3.183041,0 -5.287569,-0.24518 -5.70731,-0.66492 -0.403507,-0.4035 -0.66493,-2.36419 -0.66493,-4.98697 v -4.32203 h -1.99866 c -1.703997,0 -1.932899,0.14295 -1.552621,0.96968 0.245314,0.53333 1.786476,5.00686 3.424789,9.94117 2.071814,6.23993 3.261568,9.04625 3.907578,9.21703 1.927999,0.50967 6.043813,0.32771 9.590116,-0.42396 z M 118.2646,127.24049 c -0.53333,-0.31064 -0.96969,-1.02057 -0.96969,-1.57763 0,-1.802 1.34921,-2.31585 5.62834,-2.14353 3.7694,0.1518 4.08185,0.25776 4.24959,1.44109 0.3077,2.17052 -0.81895,2.88019 -4.54323,2.86171 -1.86743,-0.009 -3.83169,-0.271 -4.36501,-0.58164 z m 19.5576,-0.20218 c -0.36547,-0.44036 -0.58302,-1.37542 -0.48343,-2.07789 0.16776,-1.18333 0.4802,-1.28929 4.24959,-1.44109 4.28429,-0.17252 5.62835,0.34127 5.62835,2.15156 0,1.48826 -1.70479,2.16809 -5.4368,2.16809 -2.19557,0 -3.5147,-0.26686 -3.95771,-0.80067 z m 16.04381,-5.15685 c -1.29759,-0.64822 -2.3634,-1.82319 -3.22066,-3.55054 -1.63284,-3.29004 -1.23105,-5.95215 1.31816,-8.73381 1.72798,-1.88556 1.99473,-1.98306 5.42523,-1.98306 3.23039,0 3.7843,0.169 5.2938,1.61519 6.72448,6.44246 -0.49835,16.80762 -8.81653,12.65222 z m 6.09518,-4.57053 c 1.3313,-1.3313 1.40658,-2.65208 0.24563,-4.30957 -1.22934,-1.75514 -4.345,-1.70148 -5.52217,0.095 -2.31447,3.53235 2.28499,7.20603 5.27654,4.21448 z m 10.74302,-10.21378 c -5.4694,-2.38067 -6.58269,-9.096279 -2.15275,-12.985823 2.63018,-2.309322 5.05573,-2.677737 8.26967,-1.256062 2.03091,0.898368 2.79194,1.631834 3.64626,3.5142 1.35023,2.97502 1.35056,3.998395 0.003,6.968955 -0.82246,1.8121 -1.63892,2.62856 -3.45102,3.451 -2.79053,1.26655 -3.97865,1.32444 -6.31449,0.30773 z m 5.07422,-4.999 c 0.74805,-0.74804 1.36009,-1.75677 1.36009,-2.241606 0,-0.484854 -0.61204,-1.493569 -1.36009,-2.241624 -0.74804,-0.748042 -1.75677,-1.360075 -2.2416,-1.360075 -0.48486,0 -1.49357,0.612033 -2.24163,1.360075 -0.74804,0.748055 -1.36007,1.75677 -1.36007,2.241624 0,0.484836 0.61203,1.493566 1.36007,2.241606 0.74806,0.74805 1.75677,1.36009 2.24163,1.36009 0.48483,0 1.49356,-0.61204 2.2416,-1.36009 z m -48.19296,-1.72708 c -2.25948,-2.25948 -0.55158,-3.562116 4.67034,-3.562116 4.12251,0 5.54108,0.51473 5.54108,2.010613 0,1.662043 -1.73904,2.422243 -5.54108,2.422243 -2.71537,0 -4.04806,-0.24847 -4.67034,-0.87074 z m -9.06194,-5.879793 c -0.89637,-0.896362 -0.85542,-2.383471 0.0872,-3.165748 0.53494,-0.443963 4.68219,-0.587876 13.93121,-0.483427 11.84278,0.133737 13.2311,0.246406 13.7808,1.118406 0.44563,0.706919 0.44563,1.232457 -2e-5,1.939376 -0.54993,0.872367 -1.94174,0.984557 -13.86798,1.117794 -9.84512,0.110019 -13.43027,-0.02543 -13.93119,-0.526401 z m 57.50678,38.888773 c 3.02345,-3.02346 -1.20875,-7.33855 -4.69636,-4.78834 -0.64128,0.4689 -1.02942,1.43867 -1.02942,2.57192 0,3.12101 3.47574,4.46646 5.72578,2.21642 z M 91.805955,122.8715 c 0,-5.30377 0.279805,-5.56057 6.058759,-5.56057 h 3.915186 v -1.93938 -1.93937 h -4.322041 c -2.622775,0 -4.583465,-0.26143 -4.986977,-0.66493 -0.403511,-0.40351 -0.664927,-2.3642 -0.664927,-4.98697 v -4.32204 H 89.866582 87.92721 v 4.11049 c 0,5.99219 0.116877,5.86345 -5.323312,5.86345 h -4.650631 v 1.93937 1.93938 h 4.322039 c 2.622773,0 4.583465,0.26143 4.986962,0.66492 0.403512,0.40352 0.664942,2.36421 0.664942,4.98698 v 4.32204 h 1.939372 1.939373 z m 99.280155,-5.3694 c 1.2617,-1.14184 1.30738,-3.38066 0.0963,-4.71893 -1.90274,-2.1025 -5.73225,-0.62271 -5.73225,2.21505 0,2.96392 3.43926,4.49188 5.63598,2.50388 z M 118.51394,79.520793 C 118.0234,79.030247 117.84901,74.01666 117.84901,60.404082 V 41.952301 H 85.477748 53.106481 l -0.389355,1.800849 c -1.675633,7.750209 -9.054162,13.697217 -17.008615,13.708749 -10.120359,0.01469 -17.725851,-7.404517 -17.813444,-17.37709 -0.03042,-3.465992 0.215942,-4.53947 1.763304,-7.682613 5.128498,-10.41746 17.662345,-13.317275 26.948106,-6.234684 2.373076,1.810031 5.007021,5.873097 5.832426,8.996972 l 0.62224,2.354956 h 33.739632 c 29.933565,0 33.837845,0.09823 34.610355,0.870743 0.75909,0.759087 0.87074,3.409318 0.87074,20.668211 0,20.408584 -0.0754,21.127328 -2.21642,21.127328 -0.48763,0 -1.1858,-0.299218 -1.55151,-0.664929 z M 40.470578,52.27261 C 48.958514,48.726122 51.370744,37.048838 44.931908,30.675918 41.351964,27.132629 36.492818,25.843647 31.844232,27.204164 20.065779,30.6514 18.873543,46.87881 30.022963,51.993373 c 2.661363,1.220843 7.861396,1.359824 10.447615,0.279237 z m -10.64429,-6.685441 c -3.114305,-3.292917 -3.271766,-3.688966 -1.980175,-4.980557 1.230756,-1.230756 2.275737,-1.084084 3.665711,0.514528 0.662462,0.761898 1.4961,1.385268 1.852536,1.385268 0.356435,0 2.058531,-2.11946 3.782443,-4.709913 3.114611,-4.680198 4.313584,-5.518269 5.786867,-4.044985 1.191021,1.191021 0.735838,2.293661 -3.556961,8.616372 -5.061673,7.455162 -5.427638,7.578523 -9.550421,3.219287 z M 130.65476,79.42839 c -0.45046,-0.542771 -0.58743,-6.844486 -0.48344,-22.242603 0.13345,-19.766701 0.22267,-21.534181 1.11481,-22.096767 0.70713,-0.445929 1.23224,-0.445929 1.93937,0 0.89212,0.562586 0.9813,2.330066 1.11479,22.096767 0.14995,22.203588 0.0777,22.999935 -2.08448,22.999935 -0.53488,0 -1.25536,-0.340798 -1.60105,-0.757332 z m 12.23991,0.0924 c -0.49235,-0.492353 -0.66493,-5.80318 -0.66493,-20.4624 0,-17.258892 0.1116,-19.909123 0.87075,-20.668211 0.77251,-0.772515 4.67678,-0.870742 34.61036,-0.870742 h 33.73962 l 0.62225,-2.354956 c 3.19349,-12.086239 17.82882,-16.766962 28.04984,-8.971007 4.66298,3.556622 7.37863,10.565811 6.35194,16.394496 -1.58886,9.020072 -8.55939,14.887135 -17.67139,14.873926 -7.95446,-0.01157 -15.33298,-5.95854 -17.00862,-13.708749 l -0.38936,-1.800849 H 179.03387 146.6626 v 18.451781 c 0,19.008178 -0.0866,19.781639 -2.21642,19.781639 -0.48761,0 -1.18579,-0.299218 -1.55151,-0.664928 z m 91.59398,-27.527421 c 8.71826,-3.999315 10.43804,-16.200398 3.13637,-22.251142 -8.65041,-7.168428 -21.64398,-1.094157 -21.6868,10.138207 -0.0203,5.340977 3.15908,10.269153 7.97933,12.368052 2.49385,1.085913 7.93393,0.954628 10.5711,-0.255117 z m -11.80248,-5.164925 c -1.1616,-1.161586 -0.72384,-2.829721 1.28147,-4.88335 l 1.94642,-1.993308 -1.94642,-2.273946 c -2.06879,-2.416928 -2.35263,-3.40929 -1.28147,-4.480442 1.11399,-1.114 2.23899,-0.759586 4.45377,1.40309 l 2.11783,2.068011 1.89457,-2.068011 c 2.10097,-2.293346 3.82079,-2.64295 4.72158,-0.959803 0.71257,1.331432 0.21604,2.405424 -2.15548,4.662344 l -1.69674,1.614751 2.20317,2.39015 c 2.45706,2.665594 2.58081,3.066314 1.33241,4.314702 -1.30359,1.303599 -2.01854,1.08625 -4.37923,-1.331299 l -2.15022,-2.202037 -2.03292,2.202039 c -2.11171,2.287411 -3.17805,2.667812 -4.30874,1.537111 z M 130.6398,30.094797 c -0.4145,-0.499445 -0.58653,-2.598259 -0.48342,-5.897976 0.13016,-4.163531 0.34161,-5.236814 1.12975,-5.732574 0.70565,-0.443869 1.23372,-0.443869 1.93937,0 0.78813,0.49576 0.99966,1.569043 1.12975,5.732574 0.16634,5.323777 -0.25823,6.673327 -2.09944,6.673327 -0.53488,0 -1.26209,-0.34891 -1.61601,-0.775351 z"
     id="path986"
     sodipodi:nodetypes="ssssscsscscccscsscscsssssssssssssscsssscsssssssssscsssssscsscsssssssssssssssssssssssscssssscscssscsssssscssssssssssssssscssssssscsssssssssssscccsssssssscsssscssscssccccssssssscssscsssscssssscssssssssscssssssssssssscsccccssscsccsssssssssssssssssssssssssssscccssscccsscccssscccsscssssscccsccssscssssscssscssssssssscssssssscscssssscccssssscsssscssscssscssscsssscsssss" /></svg>
