<?xml version="1.0" encoding="UTF-8" standalone="no"?>
<!-- Created with Inkscape (http://www.inkscape.org/) -->

<svg
   width="1000.0001"
   height="1000.0001"
   viewBox="0 0 264.58333 264.58333"
   version="1.1"
   id="svg5"
   xml:space="preserve"
   xmlns="http://www.w3.org/2000/svg"
   xmlns:svg="http://www.w3.org/2000/svg"><defs
     id="defs2" /><path
     style="fill:#000;fill-opacity:1;stroke-width:0.32286"
     d="m 39.848828,251.52809 c -1.18665,-0.52805 -2.263065,-1.66585 -2.72114,-2.87632 -0.240119,-0.63452 -0.344155,-23.26694 -0.344155,-74.86836 V 99.824484 h 5.164647 5.164647 l -0.08271,74.545306 c -0.08208,73.97561 -0.08764,74.55193 -0.728037,75.41185 -1.452949,1.95101 -4.276421,2.71513 -6.453251,1.74645 z m 88.690712,-0.34958 c -2.56004,-1.53645 -2.45878,0.001 -2.38808,-36.26512 l 0.01,-4.92661 h 5.16998 5.16998 l -0.088,19.35992 c -0.0867,19.06805 -0.0982,19.37366 -0.76304,20.2718 -1.80997,2.44517 -4.61143,3.05981 -7.1104,1.56001 z m 89.70269,0.34153 c -0.55385,-0.24135 -1.42504,-0.98755 -1.93598,-1.65823 l -0.92898,-1.21942 -0.084,-66.25177 c -0.0462,-36.43848 -0.0286,-66.39715 0.0391,-66.57484 0.0771,-0.20252 2.06621,-0.28715 5.33102,-0.22683 l 5.20799,0.0962 -0.0845,66.31553 -0.0845,66.31554 -0.85853,1.29887 c -1.42731,2.15938 -4.18903,2.95627 -6.60171,1.90492 z M 112.45119,204.43821 c -5.81705,-1.11064 -11.14086,-6.47133 -12.39189,-12.47774 -0.448191,-2.15186 -0.467916,-13.92635 -0.0272,-16.25296 0.4065,-2.14611 1.90463,-5.40923 3.28396,-7.1529 1.38021,-1.74478 4.36242,-3.90726 6.63937,-4.81439 1.66372,-0.66281 2.55218,-0.75304 8.94575,-0.90856 l 7.09858,-0.17267 0.16133,-74.521637 0.16133,-74.521633 0.66526,-0.892116 c 1.25778,-1.686672 2.29806,-2.224265 4.30413,-2.224265 1.519,0 2.06405,0.158293 2.99623,0.87017 2.40219,1.834484 2.19826,-5.3346738 2.19826,77.277582 v 74.173429 l 6.37258,0.004 c 4.29015,0.003 6.89979,0.14504 7.9859,0.43596 5.18861,1.38977 9.42281,5.40864 11.10556,10.5408 0.60562,1.84708 0.67163,2.81762 0.67163,9.87588 0,8.98647 -0.28438,10.51292 -2.60742,13.99596 -1.55823,2.33632 -3.18966,3.79723 -5.79015,5.18497 -3.50087,1.86822 -4.51423,1.95192 -23.22337,1.91821 -9.31688,-0.0168 -17.6643,-0.16885 -18.54981,-0.33792 z m 37.26753,-11.00808 c 2.34854,-1.60036 2.40611,-1.81182 2.5125,-9.22989 0.0922,-6.42883 0.0679,-6.73545 -0.64532,-8.1344 -0.5417,-1.06254 -1.13188,-1.65168 -2.19313,-2.18923 l -1.45198,-0.73548 -17.15843,0.0894 c -16.83364,0.0877 -17.17568,0.10215 -18.06911,0.76517 -0.50087,0.3717 -1.24484,1.16753 -1.65328,1.76852 -0.72776,1.07083 -0.74067,1.23506 -0.64532,8.20824 0.0923,6.74972 0.13408,7.16718 0.813,8.12014 1.49327,2.09598 1.03313,2.04896 20.12897,2.05708 l 17.29539,0.007 1.06671,-0.72687 z m 50.637,-83.87687 c -5.40604,-1.73211 -9.41706,-5.87134 -10.8362,-11.182531 -0.64583,-2.417093 -0.60539,-15.863044 0.0554,-18.402931 1.46722,-5.639925 6.20485,-10.097744 12.04986,-11.338191 1.36738,-0.290189 4.19874,-0.455468 7.86394,-0.45906 l 5.72726,-0.0056 V 41.402053 14.639169 l 0.7401,-1.423802 c 0.84568,-1.626879 2.88363,-2.877556 4.68893,-2.877556 1.48604,0 3.48388,1.182019 4.34745,2.572147 l 0.71005,1.143003 0.0878,27.055989 0.0878,27.055989 h 5.58019 c 3.0691,0 6.44175,0.157558 7.49476,0.350125 4.62584,0.84595 9.22569,4.310651 11.2734,8.491355 1.54604,3.15647 1.77303,4.751206 1.77303,12.456474 0,7.275021 -0.27341,9.077247 -1.86553,12.296787 -1.07104,2.16583 -4.18319,5.34792 -6.39079,6.53441 -3.42313,1.83978 -3.80409,1.86977 -23.51307,1.85083 -16.41124,-0.0158 -18.24759,-0.0704 -19.87436,-0.59166 z m 38.63324,-10.566123 c 0.50086,-0.371699 1.23736,-1.15642 1.63665,-1.743821 0.69782,-1.026554 0.72599,-1.340129 0.72599,-8.0797 0,-6.740494 -0.0281,-7.052884 -0.72599,-8.076579 -0.39929,-0.585685 -1.23192,-1.334059 -1.85027,-1.663056 -1.05397,-0.560762 -2.20634,-0.598175 -18.42472,-0.598175 h -17.30043 l -1.0667,0.726877 c -2.33679,1.592349 -2.40511,1.837155 -2.52217,9.037443 -0.0884,5.437275 -0.019,6.714964 0.42845,7.888041 0.54758,1.435547 1.7746,2.556224 3.32033,3.032551 0.48069,0.148128 8.52267,0.242977 17.87108,0.210778 16.69448,-0.0575 17.01333,-0.07058 17.90778,-0.734359 z M 21.382901,93.658545 c -4.154343,-1.317903 -8.133957,-5.062713 -9.815801,-9.23665 -0.732655,-1.818278 -0.757904,-2.182279 -0.757904,-10.926523 0,-8.711934 0.0276,-9.114017 0.748332,-10.900904 1.597889,-3.961611 5.096846,-7.450864 9.054414,-9.029296 1.623045,-0.647335 2.557227,-0.741241 8.911683,-0.89581 l 7.098577,-0.172668 0.161331,-19.408806 0.161332,-19.408807 0.881772,-1.157208 c 2.201243,-2.8888468 6.221928,-2.7930179 8.455505,0.201528 0.650249,0.871784 0.668902,1.330687 0.826594,20.332604 l 0.161331,19.440689 7.098577,0.185781 c 3.904217,0.102176 7.535506,0.336398 8.069536,0.520486 4.739051,1.633645 8.519085,5.343265 10.22627,10.035775 0.58773,1.61548 0.694012,2.782073 0.816692,8.96441 0.157853,7.954884 -0.173777,10.528588 -1.766826,13.711891 -1.159569,2.31711 -4.29753,5.506726 -6.536476,6.644072 -3.470401,1.76291 -3.523595,1.766893 -23.393037,1.751432 -17.39443,-0.01354 -18.500771,-0.04889 -20.401902,-0.651996 z m 39.173591,-10.50118 c 0.500902,-0.3717 1.237424,-1.15642 1.636719,-1.743821 0.696516,-1.024645 0.725991,-1.346112 0.725991,-7.918172 0,-6.572059 -0.02949,-6.893526 -0.725991,-7.918172 -0.399295,-0.5874 -1.135817,-1.372121 -1.636716,-1.74382 -0.893668,-0.663164 -1.233823,-0.677485 -18.164363,-0.764804 -19.2458,-0.09926 -18.642844,-0.162175 -20.388624,2.127363 -0.865778,1.13544 -0.869497,1.164057 -0.970132,7.465602 -0.116153,7.273202 -0.02338,8.036097 1.146518,9.428141 1.62408,1.932466 1.210314,1.895169 20.146163,1.815956 17.010767,-0.07116 17.335953,-0.08451 18.230435,-0.748273 z"
     id="path954" /></svg>
