<?xml version="1.0" encoding="UTF-8" standalone="no"?>
<!-- Created with Inkscape (http://www.inkscape.org/) -->

<svg
   width="1000.0001"
   height="1000.0001"
   viewBox="0 0 264.58333 264.58333"
   version="1.1"
   id="svg5"
   xml:space="preserve"
   xmlns="http://www.w3.org/2000/svg"
   xmlns:svg="http://www.w3.org/2000/svg"><defs
     id="defs2" /><path
     style="fill:#188fa7;fill-opacity:1;stroke-width:1.17593"
     d="m 176.45415,240.43898 c -23.57084,-4.10603 -44.01114,-7.75541 -45.4229,-8.10974 -1.96338,-0.49277 -3.70489,-3.45972 -7.40775,-12.6203 -2.66251,-6.58684 -4.63276,-12.18423 -4.37835,-12.43864 0.25441,-0.25443 16.96592,1.99588 37.13667,5.00067 20.17075,3.00478 36.8757,5.26164 37.12209,5.01525 0.24639,-0.24639 -9.85641,-15.89908 -22.45069,-34.78377 L 148.15455,148.16667 H 103.7784 59.402262 l 28.792185,28.81019 28.792183,28.81018 -15.866,-0.0124 -15.865998,-0.0124 -34.101853,-32.44187 C 22.574232,146.13299 17.050926,140.35397 17.050926,137.6397 c 0,-2.60776 6.376972,-10.14637 32.727552,-38.689276 L 82.50603,63.500002 h 14.603468 c 8.031902,0 14.603472,0.269932 14.603472,0.599851 0,0.329918 -11.64167,14.323713 -25.870375,31.097321 -14.228704,16.773606 -25.870371,30.797546 -25.870371,31.164286 0,0.36675 19.949072,0.52817 44.331266,0.35871 l 44.33127,-0.30813 19.14213,-37.62963 c 10.52817,-20.696297 19.1541,-37.934309 19.16874,-38.306693 0.0146,-0.372384 -16.50986,2.345832 -36.72109,6.040478 -20.21123,3.694646 -36.82736,6.645158 -36.92473,6.556691 -0.33443,-0.303828 9.17516,-23.679424 9.96823,-24.503006 1.1007,-1.14304 87.56497,-22.106917 91.17866,-22.106917 3.44562,0 2.04729,-3.375568 20.60714,49.745784 7.1866,20.569209 13.06654,38.385463 13.06654,39.591683 0,1.63805 -12.59752,24.69869 -14.65594,26.82873 -0.17938,0.18562 -5.81872,-15.81719 -12.53187,-35.561811 -6.71314,-19.74462 -12.47408,-35.903784 -12.8021,-35.909255 -0.32801,-0.0055 -9.20538,17.217793 -19.72751,38.273916 l -19.13112,38.28387 22.07936,34.00338 c 16.49053,25.39627 22.29272,33.49063 22.92229,31.97771 0.46361,-1.11411 4.88508,-17.10692 9.82549,-35.53956 4.94042,-18.43264 9.09259,-33.63566 9.22706,-33.78448 0.77649,-0.85945 14.79434,21.15991 14.79434,23.2391 0,3.02209 -18.40775,87.72241 -19.42074,89.36149 -1.23652,2.00072 -8.3708,1.1084 -52.24549,-6.53454 z"
     id="path904" /></svg>
