<?xml version="1.0" encoding="UTF-8" standalone="no"?>
<!-- Created with Inkscape (http://www.inkscape.org/) -->

<svg
   width="1000.0001"
   height="1000.0001"
   viewBox="0 0 264.58333 264.58333"
   version="1.1"
   id="svg5"
   xml:space="preserve"
   xmlns="http://www.w3.org/2000/svg"
   xmlns:svg="http://www.w3.org/2000/svg"><defs
     id="defs2" /><path
     style="fill:#188fa7;fill-opacity:1;stroke-width:1.32292"
     d="m 63.764585,255.05834 c -0.873125,-0.87313 -1.5875,-4.78846 -1.5875,-8.70072 0,-6.09809 0.551859,-7.66508 3.866987,-10.98021 3.543991,-3.544 4.647388,-3.86699 13.210124,-3.86699 h 9.343136 l 3.987794,-7.89977 c 2.193286,-4.34488 3.987793,-8.21441 3.987793,-8.59896 0,-0.38456 -12.055078,-0.70011 -26.789063,-0.70124 -30.243387,-0.003 -32.627097,-0.5821 -39.924168,-9.71072 l -4.062812,-5.08257 -0.368304,-62.82749 C 25.065958,74.832713 25.103856,73.774872 27.881925,68.21233 l 2.821657,-5.649821 -3.265045,-5.172167 C 16.650976,40.30174 14.635515,30.614559 20.17448,22.476131 c 4.78808,-7.035148 9.42433,-9.755778 16.624913,-9.755778 11.900596,0 13.489427,1.718199 33.194083,35.896836 l 5.529484,9.591146 h 11.780572 11.78057 l 3.368888,-4.416842 c 4.55959,-5.97793 14.59899,-11.198748 23.5599,-12.251927 10.06846,-1.183349 14.50994,0.0301 13.97143,3.817091 -0.32691,2.299007 -1.41351,3.008835 -5.04682,3.296878 -16.07261,1.274209 -24.94147,5.934704 -29.2191,15.35435 -4.48164,9.868875 -2.05428,21.103183 6.23197,28.842852 9.678,9.039603 25.43004,8.108593 34.79325,-2.056425 2.98837,-3.24426 3.98686,-3.48181 14.63531,-3.48181 11.08674,0 11.54422,0.123428 15.31367,4.131682 7.40933,7.878727 17.72293,9.843846 27.75276,5.28793 18.69941,-8.493967 19.57775,-34.563186 1.48751,-44.150039 -5.02007,-2.660361 -7.78399,-2.963225 -31.02685,-3.399846 l -25.51586,-0.479321 0.38044,-11.453016 c 0.37194,-11.1968 0.45641,-11.461857 3.77603,-11.848222 2.49826,-0.29077 3.8256,-1.584431 5.02289,-4.895472 2.08499,-5.765965 7.92836,-10.6675682 14.09665,-11.8247478 3.7146,-0.6968613 6.26167,-0.1952539 10.91806,2.1501378 8.07648,4.068067 10.88452,9.52925 10.88452,21.168557 v 8.890382 l 4.96094,0.900266 c 7.4262,1.347637 13.83688,5.017266 19.26909,11.030073 3.79245,4.197787 5.81745,5.387923 9.17018,5.389525 6.04245,0.0029 12.9819,3.836742 16.51353,9.123268 2.89865,4.339008 3.00293,5.523483 3.00293,34.106621 0,25.21176 -0.29735,29.72561 -2.00121,30.37945 -1.10068,0.42237 -2.88662,0.0331 -3.96875,-0.86496 -1.62689,-1.35019 -1.96754,-6.43241 -1.96754,-29.35393 V 73.87981 l -3.86699,-3.866988 c -2.12684,-2.126842 -5.04675,-3.866987 -6.48869,-3.866987 -2.27883,0 -2.5322,0.66736 -1.93731,5.102617 0.94268,7.028216 -2.62837,18.329914 -7.74229,24.502936 -9.04654,10.920062 -25.66191,14.459312 -38.83451,8.272152 -3.63802,-1.70877 -7.74864,-4.381866 -9.13473,-5.940201 -3.91124,-4.397319 -15.53174,-4.023668 -21.10138,0.678506 C 133.5031,112.97809 108.90171,108.45648 98.844616,89.296877 96.856765,85.509856 96.044852,81.468068 95.98921,75.08237 l -0.07775,-8.922841 -7.606771,-0.0069 c -4.183724,-0.0037 -7.606771,0.231644 -7.606771,0.523135 0,0.29149 5.646736,10.262974 12.548301,22.158854 6.901571,11.895882 12.557041,22.958102 12.567711,24.582722 l 0.0194,2.95388 33.40364,0.35344 33.40365,0.35345 0.38223,11.57552 0.38224,11.57552 h 14.50057 14.50059 v -13.18262 c 0,-15.79939 0.11988,-15.92155 15.62604,-15.92155 12.76471,0 15.0834,1.62451 11.89213,8.33177 -1.79578,3.77428 -1.79895,4.69201 -0.0291,8.42056 3.3322,7.01997 1.77313,8.38309 -9.58819,8.38309 -7.97439,0 -9.96338,0.39613 -9.96338,1.98438 0,1.41575 1.44051,1.98437 5.02708,1.98437 2.76489,0 5.74146,0.71438 6.61458,1.5875 1.66346,1.66346 2.29829,25.448 0.78451,29.39284 -0.70777,1.84442 -5.55442,2.09258 -40.86888,2.09258 -44.14088,0 -41.69449,0.49198 -41.65163,-8.37643 0.0261,-5.40027 1.64825,-7.87906 4.76848,-7.28669 1.57482,0.29896 2.64088,1.80269 2.90591,4.09891 0.40796,3.53447 0.63504,3.62671 8.92969,3.62671 h 8.51109 v -8.59896 -8.59896 h -20.50521 -20.50521 v 23.54792 c 0,16.55115 -0.47169,24.0196 -1.5875,25.13541 -2.17508,2.17509 -12.28894,2.01125 -14.14834,-0.22919 -2.2319,-2.68927 -0.40767,-5.90972 3.61082,-6.37446 3.38237,-0.39119 3.52606,-0.73126 3.52606,-8.3453 v -7.9375 l -8.26823,-0.39386 -8.268228,-0.39385 v 11.04333 c 0,6.82537 -0.606341,11.64968 -1.587501,12.63083 -2.241916,2.24193 -52.791418,2.24193 -55.033334,0 -1.904056,-1.90406 -2.228501,-28.28727 -0.362047,-29.44081 0.751914,-0.4647 0.752023,-2.40813 2.79e-4,-5.0293 -3.846994,-13.41369 9.079151,-25.66178 21.524891,-20.3958 7.412253,3.13623 9.660836,6.76175 9.660836,15.5767 v 7.7964 l 8.929688,0.004 8.929687,0.004 v -9.67642 -9.67641 L 80.304116,138.00781 C 69.603074,130.20465 69.054058,129.53008 58.47599,111.18779 47.391129,91.966716 45.960017,87.868921 49.815431,86.38946 c 2.880543,-1.105369 5.000998,1.641455 14.999575,19.43034 4.499765,8.00572 8.591423,14.80927 9.092576,15.119 0.501151,0.30973 2.279531,-0.469 3.951953,-1.73051 l 3.040766,-2.2942 -20.153636,-34.975274 c -11.0845,-19.2364 -20.306394,-35.172333 -20.493097,-35.413185 -0.296289,-0.38222 -5.69728,2.078274 -6.993406,3.185939 -0.260817,0.222893 2.610842,5.796302 6.381466,12.385351 7.189246,12.56299 7.874383,16.344619 3.085298,17.029353 -2.128033,0.304263 -3.467997,-0.71143 -5.09866,-3.864785 -1.864798,-3.606123 -2.401946,-3.938082 -3.42222,-2.114952 -0.698179,1.247575 -1.053988,27.974123 -0.84095,63.167863 l 0.36928,61.00528 4.94151,4.52767 4.941511,4.52766 h 76.748593 c 44.15536,0 76.7486,-0.50172 76.7486,-1.18142 0,-0.64978 -0.94946,-5.7725 -2.10991,-11.38385 -1.512,-7.31128 -1.70466,-10.60767 -0.67983,-11.6325 1.96864,-1.96864 34.55428,4.17551 35.5222,6.69787 0.38061,0.99185 -0.0951,3.27411 -1.05711,5.07166 -1.58409,2.95992 -1.41818,3.59922 1.75839,6.77581 3.42809,3.42807 3.5686,3.45226 6.20355,1.06765 2.55143,-2.30902 2.69604,-3.94572 2.69604,-30.51557 0,-29.33673 0.56076,-32.27022 5.78545,-30.26531 1.89825,0.72842 2.15205,4.29778 2.15205,30.26529 0,28.97455 -0.0507,29.51411 -3.2068,34.16497 -2.02762,2.98786 -2.93369,5.76988 -2.46406,7.56572 0.56931,2.17709 -0.91078,4.51456 -6.33916,10.0112 -3.89503,3.94404 -7.68151,7.17098 -8.4144,7.17098 -0.73288,0 -5.04847,-3.68294 -9.5902,-8.18429 -7.86403,-7.79413 -8.37522,-8.07792 -10.7231,-5.95313 -3.04128,2.75233 -4.75685,2.81379 -6.88728,0.24679 -1.90324,-2.29326 -22.48958,-2.92558 -22.48958,-0.69076 0,0.71148 1.61229,4.58101 3.58288,8.59896 l 3.58288,7.30534 h 9.08659 c 8.27918,0 9.4302,0.34362 12.95357,3.86699 3.41039,3.41038 3.867,4.79953 3.867,11.76472 0,5.98131 -0.50778,8.09257 -2.09258,8.70071 -2.73176,1.04828 -87.01018,1.04828 -89.74194,0 -1.15091,-0.44164 -2.09257,-2.22758 -2.09257,-3.96875 v -3.16575 h 42.99479 42.9948 v -3.82721 c 0,-2.26954 -0.85169,-4.15404 -2.09258,-4.63021 -1.15091,-0.44166 -30.24833,-0.803 -64.66093,-0.803 -66.625342,0 -66.494167,-0.0119 -65.301473,6.2203 0.403604,2.10916 2.475204,2.4536 18.284142,3.04012 16.110501,0.59771 17.874861,0.9012 18.305061,3.14877 0.26186,1.36802 -0.32661,2.99602 -1.30771,3.61776 -2.87037,1.81904 -40.002028,1.44963 -41.868185,-0.41653 z M 174.625,230.81123 c 0,-0.38454 -1.79451,-4.25407 -3.9878,-8.59895 l -3.98778,-7.89977 h -30.1241 -30.1241 l -4.24034,8.59895 -4.240341,8.59896 h 38.352241 c 21.09372,0 38.35222,-0.31463 38.35222,-0.69919 z m 54.9413,-13.89738 c 2.39427,-2.64564 2.30675,-2.81963 -5.26915,-10.47541 -5.71754,-5.77783 -7.52348,-8.47482 -7.00429,-10.4602 0.60151,-2.30015 -0.21644,-2.87155 -5.83572,-4.07667 -3.59441,-0.77086 -6.99991,-1.40157 -7.5678,-1.40157 -0.56788,0 -0.43904,3.27422 0.28632,7.27605 1.10798,6.11276 1.76658,7.27604 4.11939,7.27604 1.64167,0 5.77399,3.01085 9.98621,7.27604 3.9521,4.00182 7.56021,7.27604 8.018,7.27604 0.45779,0 1.92796,-1.21064 3.26704,-2.69032 z M 66.145835,183.88542 c 0,-6.80764 -1.09826,-8.08893 -3.96875,-4.63021 -0.905787,1.09141 -2.98938,1.98438 -4.630209,1.98438 -1.640828,0 -3.724421,-0.89297 -4.630208,-1.98438 -0.905787,-1.0914 -2.169304,-1.98437 -2.807818,-1.98437 -1.345269,0 -1.594533,11.03168 -0.278987,12.34722 0.485068,0.48507 4.3546,0.88194 8.598958,0.88194 h 7.717014 z m 25.135417,-1.98437 v -8.59896 h -8.598958 -8.598959 v 8.59896 8.59895 h 8.598959 8.598958 z M 63.14751,165.9232 c 1.62514,-2.85385 2.964593,-6.73367 2.976563,-8.6218 0.0569,-8.97635 -13.94618,-11.27854 -16.199132,-2.66323 -1.350942,5.166 5.391407,18.0739 8.848288,16.93961 0.780714,-0.25616 2.74914,-2.80073 4.374281,-5.65458 z m 53.00156,-8.82684 c -0.34667,-7.27759 -0.73117,-8.31635 -3.20922,-8.66984 -2.08027,-0.29676 -3.03673,0.48041 -3.66322,2.97656 -0.92661,3.6919 -5.58446,4.67659 -8.47038,1.79067 -1.234719,-1.23471 -1.587497,-0.0587 -1.587497,5.29167 v 6.87917 h 8.662087 8.66208 z m 74.08334,0 -0.39386,-8.26823 h -7.9375 -7.9375 l -0.39386,8.26823 -0.39385,8.26823 h 8.72521 8.7252 z m 25.13541,0 c -0.29974,-6.29255 -0.86802,-8.26823 -2.37823,-8.26823 -1.16556,0 -2.15265,1.45497 -2.39218,3.52606 -0.76755,6.63681 -8.19115,5.69226 -8.19115,-1.04221 0,-1.91389 -0.77691,-3.14531 -1.98438,-3.14531 -1.56037,0 -1.98437,1.83739 -1.98437,8.59896 v 8.59896 h 8.66208 8.66208 z M 100.54167,139.64579 c 0,-2.37114 -2.185724,-3.82589 -4.032989,-2.68421 -0.948273,0.58606 -0.897024,1.44788 0.161983,2.72391 1.998865,2.40848 3.871006,2.38928 3.871006,-0.0397 z m 15.875,-7.35412 v -7.9375 h -4.63021 c -4.21799,0 -4.63021,0.3386 -4.63021,3.80339 0,2.09186 0.37207,5.66373 0.82683,7.9375 0.69596,3.47984 1.42875,4.13411 4.6302,4.13411 3.76664,0 3.80339,-0.0767 3.80339,-7.9375 z m 23.8125,0 v -7.9375 h -7.9375 -7.9375 v 7.9375 7.9375 h 7.9375 7.9375 z m 25.13542,0 v -7.9375 h -8.59896 -8.59896 v 7.9375 7.9375 h 8.59896 8.59896 z m -71.924383,-2.75373 c 3.667243,-2.26648 4.455629,-3.56215 4.455629,-7.32259 0,-5.12632 0.516976,-5.20956 -11.76107,1.89353 l -5.807944,3.36001 2.97794,2.41139 c 3.771061,3.05363 4.690939,3.02255 10.135445,-0.34234 z m 126.446153,-5.18377 c -0.51571,-3.51376 -1.09609,-3.96875 -5.06255,-3.96875 -4.09589,0 -4.48005,0.34032 -4.48005,3.96875 0,3.71833 0.31944,3.96875 5.06255,3.96875 4.87254,0 5.04068,-0.14895 4.48005,-3.96875 z M 93.111121,110.74011 c 2.147225,-1.57009 0.710285,-4.5305 -17.81892,-36.710936 C 64.207233,54.777451 54.938151,38.780512 54.694239,38.480418 c -0.24391,-0.300094 -1.992652,0.160229 -3.886093,1.022938 -2.367424,1.078671 -3.186471,2.236076 -2.622466,3.705846 2.394732,6.240571 39.745908,69.238718 41.051169,69.238718 0.846288,0 2.589711,-0.76851 3.874272,-1.70781 z m -52.022252,-75.067177 9.170774,-5.35602 -2.166127,-3.305927 c -2.840805,-4.335616 -5.857651,-5.844319 -11.686469,-5.844319 -8.986335,0 -14.378035,10.244571 -9.847256,18.710409 1.671919,3.12401 2.285591,2.946437 14.529078,-4.204143 z m 124.275721,1.368735 c 0,-3.527779 -0.44097,-3.96875 -3.96875,-3.96875 -3.52778,0 -3.96875,0.440971 -3.96875,3.96875 0,3.527778 0.44097,3.96875 3.96875,3.96875 3.52778,0 3.96875,-0.440972 3.96875,-3.96875 z m 20.94158,-5.298553 c -0.4117,-7.286165 -1.13493,-9.878584 -3.38308,-12.126737 -3.81821,-3.818218 -10.05543,-3.714356 -14.26198,0.237489 -4.21529,3.960062 -4.15054,5.007543 0.3415,5.524409 3.44397,0.396273 3.65919,0.824332 4.03476,8.025371 l 0.39676,7.606771 h 6.69785 6.69784 z m 5.71732,58.367171 c -2.67777,-1.696974 -1.25657,-6.04494 2.13397,-6.52859 3.55511,-0.507127 5.30032,2.891812 2.94315,5.732029 -1.87094,2.254345 -2.59704,2.368263 -5.07712,0.796561 z m -66.14374,-4.447202 c -0.83907,-0.83907 -1.52558,-2.855259 -1.52558,-4.48042 0,-2.240035 -0.88007,-3.0561 -3.63802,-3.373437 -2.88699,-0.332183 -3.63802,-1.10136 -3.63802,-3.725892 0,-2.606103 0.75431,-3.3944 3.55788,-3.718159 2.74967,-0.317533 3.65122,-1.219085 3.96875,-3.96875 0.32376,-2.803566 1.11206,-3.557883 3.71816,-3.557883 2.58918,0 3.39502,0.757206 3.71135,3.487322 0.31116,2.685619 1.32116,3.670744 4.39337,4.285183 3.21056,0.642115 3.90641,1.381695 3.56469,3.78872 -0.30472,2.146314 -1.4519,3.109062 -4.06264,3.409459 -2.84116,0.326911 -3.63802,1.113581 -3.63802,3.591477 0,3.800407 -4.12906,6.545237 -6.41192,4.26238 z m 24.08824,-9.595374 c -1.04801,-2.731055 0.37296,-5.953125 2.62538,-5.953125 2.7079,0 5.01181,3.28827 4.05354,5.785448 -1.0371,2.702645 -5.66161,2.818745 -6.67892,0.167677 z m 15.87123,-0.0098 c -0.46004,-1.198858 0.0323,-3.048422 1.09396,-4.110145 2.64704,-2.647033 6.61738,-0.934473 6.10812,2.634673 -0.50174,3.516519 -5.98757,4.640391 -7.20208,1.475472 z m 17.20169,0.0098 c -1.04801,-2.731055 0.37296,-5.953125 2.62538,-5.953125 2.70789,0 5.01181,3.28827 4.05354,5.785448 -1.0371,2.702645 -5.66161,2.818745 -6.67892,0.167677 z m 19.83998,-0.0098 c -0.46682,-1.216519 0.075,-3.091241 1.22625,-4.242437 2.81006,-2.810059 6.53712,-1.199196 5.99868,2.592672 -0.52175,3.674192 -5.97063,4.91841 -7.22493,1.649765 z m -7.89813,-11.803669 c -1.31719,-3.432534 0.52901,-6.269547 3.77956,-5.807967 2.18642,0.310469 2.98248,1.306253 2.98248,3.7308 0,2.424546 -0.79606,3.420331 -2.98248,3.730806 -1.78895,0.254033 -3.30146,-0.407721 -3.77956,-1.653646 z"
     id="path299" /></svg>
