<svg width="100" height="100" viewBox="0 0 100 100" fill="none" xmlns="http://www.w3.org/2000/svg">
<path d="M84.5152 79.0284C83.078 74.6191 82.0552 70.9342 81.9082 69.635C81.7576 68.3041 82.2861 66.6305 83.1158 65.8111L83.6398 65.2936V55.5066C83.6398 46.3492 83.5241 43.7724 83.1155 43.8296C83.052 43.8385 81.9308 44.3483 80.6239 44.9624L78.2476 46.0789L78.1563 55.6188L78.0649 65.1586L77.3819 66.7984C75.1834 72.0767 67.9631 75.8979 57.3186 77.4163C53.6619 77.938 46.3525 77.938 42.6957 77.4163C32.0513 75.8979 24.8309 72.0767 22.6325 66.7984L21.9495 65.1586L21.8581 55.6159L21.7667 46.0731L12.993 42.0489C5.42571 38.5781 4.1501 37.9297 3.71656 37.3339C2.87229 36.1737 3.19228 34.7317 4.4351 34.0958C5.42812 33.5877 49.5744 17.8561 50.0072 17.8561C50.4331 17.8561 94.5769 33.5831 95.5569 34.0839C96.3293 34.4787 96.8962 35.6138 96.7237 36.4204C96.4755 37.5807 95.8814 37.9823 91.3213 40.0722C88.8607 41.1999 86.8201 42.1548 86.7866 42.1941C86.753 42.2335 86.8661 42.8312 87.038 43.5223C87.3076 44.6069 87.3612 46.178 87.4296 55.0062L87.5087 65.2335L88.2177 66.1083C89.0515 67.1369 89.3886 68.3694 89.2154 69.7556C89.0533 71.0528 87.8532 75.3746 86.6215 79.0971C86.0759 80.7459 85.6109 82.1168 85.5881 82.1435C85.5652 82.1703 85.0825 80.7685 84.5152 79.0284ZM58.2326 72.8937C64.7005 71.8173 70.2204 69.505 72.6662 66.8474C74.399 64.9646 74.3292 65.4323 74.2742 56.0693L74.2264 47.9138L62.3563 53.372C55.8278 56.374 50.2707 58.8302 50.0072 58.8302C49.7436 58.8302 44.1865 56.374 37.658 53.372L25.788 47.9138L25.7353 55.7854C25.7064 60.1147 25.7301 63.9669 25.788 64.3458C25.9384 65.3295 27.514 67.2573 29.034 68.3171C32.3287 70.6143 37.3729 72.3065 43.2725 73.0937C46.3355 73.5024 55.2947 73.3826 58.2326 72.8937ZM64.4055 47.7257C76.0813 42.3831 78.2645 41.3202 77.8403 41.185C77.5617 41.0962 71.2469 40.1086 63.8075 38.9904C56.3681 37.8721 49.982 36.858 49.6161 36.7369C48.699 36.4333 48.2948 35.653 48.4136 34.4159C48.5154 33.3558 48.9852 32.757 49.8294 32.6116C50.3371 32.5242 80.0079 36.9726 81.5378 37.3655C82.0405 37.4946 82.8651 37.8253 83.3703 38.1004L84.289 38.6006L86.7519 37.4709C88.1279 36.8397 89.0938 36.2891 88.9406 36.2232C88.7898 36.1583 79.9683 32.9986 69.3372 29.2017L50.0078 22.2982L30.5865 29.2297C19.9047 33.042 11.109 36.2177 11.0405 36.2868C10.8567 36.472 49.8679 54.3308 50.19 54.2088C50.3408 54.1517 56.7378 51.2343 64.4055 47.7257Z" fill="#115B6A"/>
</svg>
