<?xml version="1.0" encoding="UTF-8" standalone="no"?>
<!-- Created with Inkscape (http://www.inkscape.org/) -->

<svg
   width="1000.0001"
   height="1000.0001"
   viewBox="0 0 264.58333 264.58333"
   version="1.1"
   id="svg5"
   xml:space="preserve"
   xmlns="http://www.w3.org/2000/svg"
   xmlns:svg="http://www.w3.org/2000/svg"><defs
     id="defs2" /><path
     style="fill:#000000;stroke-width:0.749636"
     d="m 56.749073,252.66348 c -4.342082,-0.85452 -11.768653,-3.69845 -16.214021,-6.209 -6.253104,-3.53149 -15.877257,-13.47396 -19.355363,-19.99554 -4.931942,-9.24758 -6.076791,-14.2437 -6.027919,-26.30584 0.03956,-9.76376 0.219507,-11.1629 2.108433,-16.39349 3.77859,-10.46323 6.285691,-13.7998 25.424459,-33.83602 20.075946,-21.01736 25.08881,-25.08799 34.972745,-28.39917 10.85469,-3.63639 25.479433,-3.22576 34.941113,0.98107 l 3.15388,1.40227 -4.25938,4.31566 -4.25938,4.31564 -5.15901,-1.14948 c -10.065029,-2.24259 -20.882714,-0.2288 -29.60662,5.51149 -5.256267,3.4586 -34.556822,33.2936 -38.905266,39.6149 -1.73091,2.51622 -4.087054,6.97677 -5.235876,9.91235 -1.842514,4.70816 -2.092809,6.32624 -2.12304,13.72478 -0.02806,6.86664 0.277461,9.32279 1.685037,13.54654 4.08991,12.27269 13.151919,21.61911 25.095194,25.88282 3.956605,1.4125 6.391726,1.73211 12.977526,1.70331 7.151238,-0.0313 8.715228,-0.29023 13.266017,-2.19646 8.035477,-3.3659 12.809489,-7.40995 29.894728,-25.32376 21.25701,-22.2879 23.88572,-26.93323 23.88343,-42.20575 -7.1e-4,-4.74325 -0.40563,-9.20467 -0.99357,-10.94701 l -0.99236,-2.94088 4.31925,-4.51575 4.31925,-4.51574 1.3554,3.26294 c 5.92575,14.26548 3.98914,34.54797 -4.58008,47.96802 -4.77506,7.47811 -38.355664,41.9332 -44.684107,45.84775 -7.763487,4.80222 -14.971806,6.87774 -24.682457,7.10692 -4.661531,0.11002 -9.304637,0.0368 -10.318013,-0.16257 z m 40.034761,-82.01007 c -1.90441,-0.95255 -3.49351,-4.51073 -2.891255,-6.47387 0.652312,-2.12634 71.423371,-74.968443 72.836941,-74.968443 3.68588,0 7.16145,4.155789 6.17224,7.380267 -0.75949,2.475714 -71.45641,74.973506 -73.055864,74.916836 -0.80095,-0.0284 -2.178877,-0.41304 -3.062062,-0.85479 z m 64.987876,-29.92119 c -2.43211,-0.58197 -5.84125,-1.6906 -7.57589,-2.46361 l -3.15387,-1.40547 4.3648,-4.46863 4.3648,-4.46862 2.84258,1.02668 c 1.6841,0.60827 5.99639,1.0272 10.58109,1.02794 8.82109,0.002 13.15887,-1.18697 20.26753,-5.55249 5.16671,-3.17294 34.63701,-32.8969 39.58304,-39.923746 12.97547,-18.4343 9.45503,-43.503894 -8.02728,-57.163429 -12.02397,-9.394736 -27.47037,-10.765602 -41.41501,-3.675579 -6.00901,3.055218 -7.30324,4.210656 -23.78641,21.235507 -17.89019,18.478103 -21.65121,23.308634 -24.30541,31.217067 -2.0364,6.067624 -2.51756,15.26313 -1.14394,21.861869 l 1.11105,5.337421 -4.17138,4.40667 -4.1714,4.40668 -1.3554,-3.26294 c -4.06622,-9.788887 -4.46312,-24.919387 -0.94827,-36.149458 3.2005,-10.225739 7.13506,-15.411958 27.44988,-36.182173 19.62534,-20.065275 22.87973,-22.658644 33.08059,-26.361411 5.31895,-1.9306987 6.85195,-2.1390867 15.83845,-2.1529861 10.98801,-0.016996 15.80358,1.1394118 24.68953,5.9289171 5.96024,3.212554 16.28068,13.880875 19.69758,20.361532 4.92624,9.343355 6.09932,14.343107 6.08258,25.924592 -0.0134,9.297268 -0.21486,10.883292 -2.08102,16.386172 -3.579,10.553635 -6.08568,13.920561 -25.48025,34.224585 -20.06338,21.0042 -25.0825,25.08099 -34.97274,28.40668 -7.36459,2.47641 -20.27853,3.17401 -27.36523,1.47823 z"
     id="path299" /></svg>
