<?xml version="1.0" standalone="no"?>
<!DOCTYPE svg PUBLIC "-//W3C//DTD SVG 20010904//EN"
 "http://www.w3.org/TR/2001/REC-SVG-20010904/DTD/svg10.dtd">
<svg version="1.0" xmlns="http://www.w3.org/2000/svg"
 width="512.000000pt" height="512.000000pt" viewBox="0 0 512.000000 512.000000"
 preserveAspectRatio="xMidYMid meet">

<g transform="translate(0.000000,512.000000) scale(0.100000,-0.100000)"
fill="#000000" stroke="none">
<path d="M2969 5092 c-73 -38 -112 -100 -117 -186 l-4 -62 -82 -28 c-44 -15
-114 -44 -154 -63 l-73 -36 -32 30 c-65 62 -136 82 -219 63 -50 -12 -63 -23
-224 -184 -166 -165 -172 -173 -184 -227 -16 -73 4 -146 56 -208 l37 -43 -29
-56 c-15 -32 -44 -100 -64 -152 l-36 -95 -67 -6 c-81 -7 -135 -41 -175 -108
-27 -46 -27 -48 -30 -264 -4 -250 3 -289 66 -350 47 -45 98 -67 159 -67 l48 0
23 -67 c13 -38 42 -107 64 -155 l41 -87 -31 -36 c-50 -56 -65 -94 -65 -160 0
-42 6 -72 21 -100 24 -47 303 -326 347 -348 81 -39 168 -27 246 35 l51 40 87
-40 c48 -23 117 -51 154 -63 l67 -22 0 -51 c0 -28 9 -69 19 -92 24 -53 91
-109 146 -123 67 -17 410 -14 471 4 89 26 154 116 154 212 l0 48 68 23 c37 13
106 42 154 64 l86 40 51 -40 c78 -62 165 -74 246 -35 43 21 322 300 348 348
15 28 21 57 21 100 -1 66 -16 104 -66 160 l-31 36 41 87 c22 48 51 117 64 155
l23 67 48 0 c61 0 112 22 159 67 63 61 70 100 66 350 -3 216 -3 218 -30 264
-38 65 -97 101 -177 108 l-65 6 -36 95 c-20 52 -49 120 -64 152 l-29 56 37 43
c52 62 72 135 56 208 -12 54 -18 62 -184 227 -161 161 -174 172 -224 184 -82
19 -146 1 -217 -61 l-35 -32 -68 34 c-37 18 -105 47 -152 64 l-85 30 -6 63
c-8 86 -47 147 -118 184 l-53 28 -223 0 -223 0 -53 -28z m471 -267 c8 -134 7
-132 180 -185 57 -18 156 -59 218 -91 62 -32 124 -59 138 -59 17 0 47 21 94
65 38 36 73 65 77 65 5 0 69 -61 143 -135 l134 -134 -61 -64 c-90 -94 -92
-113 -21 -238 43 -75 93 -203 123 -311 21 -77 41 -90 158 -97 l92 -6 0 -190 0
-190 -91 -5 c-120 -7 -137 -18 -164 -112 -31 -110 -77 -224 -126 -310 -61
-107 -59 -123 21 -208 53 -57 64 -73 56 -87 -5 -10 -66 -74 -135 -142 l-127
-125 -57 56 c-63 61 -89 78 -124 78 -13 0 -81 -29 -153 -65 -71 -35 -140 -67
-152 -70 l-23 -6 0 215 0 216 43 21 c140 71 280 209 365 359 45 80 89 221 102
325 38 305 -105 631 -356 811 -141 101 -238 111 -311 32 -43 -46 -46 -67 -44
-393 2 -363 -2 -387 -73 -453 -81 -75 -161 -75 -242 0 -71 66 -75 90 -73 453
1 326 -1 347 -44 393 -73 79 -170 69 -311 -32 -189 -135 -323 -363 -356 -606
-26 -190 28 -422 136 -586 79 -119 216 -245 332 -303 l42 -21 0 -216 0 -215
-22 6 c-13 3 -81 35 -153 70 -71 36 -140 65 -153 65 -35 0 -61 -17 -124 -78
l-57 -56 -127 125 c-69 68 -130 132 -135 142 -8 14 3 30 56 87 80 85 82 101
21 208 -49 86 -95 200 -126 310 -27 94 -44 105 -164 112 l-91 5 0 190 0 190
92 6 c117 7 137 20 158 97 30 108 80 236 123 311 71 125 69 144 -21 238 l-61
64 134 134 c74 74 138 135 143 135 4 0 39 -29 77 -65 46 -43 77 -65 93 -65 14
0 77 27 142 60 64 33 163 74 219 91 55 17 112 36 125 42 34 17 51 65 51 150 0
41 3 77 7 81 4 3 90 5 192 4 l186 -3 5 -90z m-588 -1017 c-3 -295 4 -360 49
-451 76 -149 254 -246 398 -216 172 35 301 168 331 340 7 39 10 165 8 327 -2
144 -1 262 1 262 2 0 26 -17 53 -37 107 -78 207 -231 244 -373 23 -87 23 -245
1 -330 -53 -200 -190 -366 -383 -459 -46 -23 -89 -51 -96 -63 -10 -17 -14
-123 -18 -428 l-5 -405 -190 0 -190 0 -5 405 c-4 303 -8 411 -18 427 -7 13
-49 41 -94 64 -103 51 -163 94 -227 165 -137 149 -203 371 -169 564 30 168
119 323 243 422 32 26 61 48 65 48 3 0 4 -118 2 -262z"/>
<path d="M384 1782 c-28 -10 -64 -28 -80 -41 -38 -29 -81 -94 -94 -140 -6 -22
-10 -251 -10 -592 0 -620 0 -620 67 -698 20 -24 60 -54 87 -67 49 -23 59 -24
311 -24 240 0 263 2 305 21 55 25 105 71 131 122 l19 37 119 0 119 0 564 -151
c309 -83 624 -168 698 -189 74 -20 169 -43 210 -50 167 -28 353 17 524 128 98
64 247 175 261 195 49 70 -31 177 -111 146 -13 -4 -78 -47 -146 -95 -277 -195
-372 -215 -648 -141 -69 19 -395 107 -725 196 l-599 161 -128 0 -128 0 2 408
3 407 115 6 c104 5 127 10 240 51 173 63 264 82 390 82 208 0 372 -74 585
-264 114 -101 82 -94 475 -100 325 -5 347 -6 380 -26 65 -38 97 -129 69 -201
-15 -42 -68 -92 -109 -103 -20 -6 -225 -10 -498 -10 -299 0 -470 -4 -483 -10
-24 -13 -49 -61 -49 -94 0 -14 13 -40 29 -58 l29 -33 504 0 503 0 67 32 c83
39 146 101 183 179 24 49 29 73 31 149 l2 90 408 209 c343 176 416 210 458
213 94 7 166 -56 166 -145 0 -81 -24 -108 -246 -267 -233 -167 -242 -178 -202
-261 12 -26 48 -44 87 -44 31 0 32 1 270 170 244 173 286 232 286 400 0 76 -4
104 -21 141 -75 162 -260 244 -435 193 -30 -9 -237 -110 -462 -226 l-407 -209
-39 31 c-22 17 -61 40 -88 53 -46 21 -61 22 -385 25 l-337 3 -63 56 c-162 145
-326 242 -483 284 -64 18 -107 22 -220 22 -164 0 -226 -12 -435 -83 -135 -46
-153 -50 -242 -50 -91 0 -96 1 -102 23 -9 37 -61 91 -117 122 l-54 30 -250 3
c-219 2 -256 0 -301 -16z m520 -203 l26 -20 0 -551 c0 -499 -2 -553 -17 -570
-15 -16 -36 -18 -245 -18 -215 0 -229 1 -248 20 -20 20 -20 33 -20 565 l0 546
25 24 c24 25 24 25 238 25 202 0 216 -1 241 -21z"/>
<path d="M3864 740 c-65 -27 -84 -112 -35 -161 74 -73 196 0 164 97 -16 49
-84 83 -129 64z"/>
</g>
</svg>
