<svg width="142" height="112" viewBox="0 0 142 112" fill="none" xmlns="http://www.w3.org/2000/svg">
<path d="M0.09375 56.4622V0.924438H70.7782H141.463V56.4622V112H70.7782H0.09375V56.4622ZM137.045 60.88V14.8089H70.7782H4.51153V60.88V106.951H70.7782H137.045V60.88ZM60.6804 85.6962C59.4655 85.1702 58.3788 84.651 58.2656 84.5425C58.0033 84.2911 77.6212 39.9114 78.2955 39.2306C79.1125 38.4058 83.5144 40.8135 83.2198 41.924C82.7206 43.8054 63.5312 86.7548 63.2125 86.7041C63.0347 86.6757 61.8953 86.2222 60.6804 85.6962ZM35.0904 70.0509C24.0302 63.5241 21.8671 62.0124 21.8671 60.8092C21.8671 59.6212 24.1192 57.9664 34.8049 51.3032C41.9206 46.866 47.8846 43.2331 48.0582 43.23C48.7688 43.2176 51.2805 47.807 50.7939 48.2286C50.5041 48.4796 45.9159 51.3235 40.5977 54.5482C35.2795 57.773 31.1615 60.6328 31.4466 60.9034C31.7316 61.1739 36.2249 63.8795 41.4315 66.9159C46.6382 69.9522 50.997 72.5147 51.1177 72.6103C51.2384 72.7059 50.6569 73.9249 49.8255 75.3191L48.3138 77.8541L35.0904 70.0509ZM91.6941 75.2848C90.8954 73.897 90.3355 72.6972 90.45 72.6186C90.5645 72.54 94.9182 69.9796 100.125 66.9287C105.332 63.8779 109.825 61.1634 110.11 60.8966C110.395 60.6298 106.277 57.773 100.959 54.5482C95.6405 51.3235 91.0522 48.4796 90.7625 48.2286C90.2737 47.8051 92.7956 43.2061 93.4982 43.2395C93.6717 43.2478 99.6357 46.8775 106.752 51.3054C117.48 57.9814 119.689 59.6034 119.689 60.8036C119.689 62.0112 117.755 63.3975 108.014 69.1709C91.4178 79.007 93.4074 78.2617 91.6941 75.2848ZM13.3471 10.3911C14.9541 8.78413 14.9541 6.94919 13.3471 5.34222C9.89459 1.88973 4.80188 6.8764 8.08045 10.4992C9.45121 12.0139 11.772 11.9662 13.3471 10.3911ZM23.4449 10.3911C24.1391 9.69688 24.7071 8.56088 24.7071 7.86666C24.7071 6.30225 22.5672 4.07999 21.0608 4.07999C19.1408 4.07999 17.1337 5.92752 17.1337 7.69498C17.1337 11.2472 20.9559 12.88 23.4449 10.3911ZM33.9483 10.0266C36.238 6.53213 32.3527 2.64689 28.8582 4.93658C25.8002 6.94027 27.3743 11.6533 31.1015 11.6533C32.319 11.6533 33.2196 11.1387 33.9483 10.0266Z" fill="#1C8EA9"/>
</svg>
