<svg width="70" height="52" viewBox="0 0 70 52" fill="none" xmlns="http://www.w3.org/2000/svg">
<g clip-path="url(#clip0_47_2)">
<rect width="70" height="52" fill="none"/>
<circle cx="17.6486" cy="18.0862" r="11.6987" fill="#0E4550"/>
<path d="M0.936188 45.6616C0.936188 35.9701 8.79271 28.1136 18.4842 28.1136C28.1757 28.1136 36.0322 35.9701 36.0322 45.6616V48.1685H0.936188V45.6616Z" fill="#0E4550"/>
<circle cx="50.6801" cy="18.0862" r="11.6987" fill="#0E4550"/>
<path d="M33.9678 45.6616C33.9678 35.9701 41.8243 28.1136 51.5158 28.1136C61.2073 28.1136 69.0638 35.9701 69.0638 45.6616V48.1685H33.9678V45.6616Z" fill="#0E4550"/>
<circle cx="33.9678" cy="14.6454" r="14.4513" fill="#115B6A"/>
<path d="M13.323 48.7092C13.323 36.7373 23.0281 27.0322 35 27.0322C46.9718 27.0322 56.677 36.7373 56.677 48.7092V51.8059H13.323V48.7092Z" fill="#115B6A"/>
</g>
<defs>
<clipPath id="clip0_47_2">
<rect width="70" height="52" fill="white"/>
</clipPath>
</defs>
</svg>
