<?xml version="1.0" standalone="no"?>
<!DOCTYPE svg PUBLIC "-//W3C//DTD SVG 20010904//EN"
 "http://www.w3.org/TR/2001/REC-SVG-20010904/DTD/svg10.dtd">
<svg version="1.0" xmlns="http://www.w3.org/2000/svg"
 width="512.000000pt" height="512.000000pt" viewBox="0 0 512.000000 512.000000"
 preserveAspectRatio="xMidYMid meet">

<g transform="translate(0.000000,512.000000) scale(0.100000,-0.100000)"
fill="#000000" stroke="none">
<path d="M945 5105 c-60 -22 -110 -69 -140 -129 -49 -100 -91 -119 -190 -85
-109 37 -198 14 -295 -77 -99 -92 -129 -196 -91 -309 34 -99 15 -141 -85 -190
-107 -52 -149 -138 -142 -289 6 -134 49 -202 165 -260 43 -21 54 -33 68 -70
16 -43 16 -47 -4 -105 -12 -34 -21 -81 -21 -105 0 -39 -3 -45 -31 -56 -48 -20
-118 -95 -147 -158 l-27 -57 0 -1070 0 -1070 22 -47 c29 -63 96 -134 158 -166
l50 -27 418 -3 417 -3 0 -164 0 -165 -162 -2 -163 -3 -3 -248 -2 -247 1432 0
c1199 0 1444 3 1500 15 214 45 398 228 443 443 18 81 21 630 4 702 -12 52 -53
136 -80 166 l-20 21 78 27 c267 94 472 302 562 571 24 73 51 215 51 271 0 6
21 15 48 19 61 9 154 59 194 104 17 19 43 60 57 91 26 54 26 59 29 310 l3 255
29 30 c42 44 50 74 50 197 0 93 -4 119 -21 154 -22 46 -66 80 -116 90 -29 6
-31 8 -42 90 -42 297 -200 582 -429 774 -184 155 -421 258 -653 285 -53 7 -57
9 -63 37 -10 51 -44 95 -90 117 -35 17 -61 21 -154 21 -61 0 -123 -5 -139 -11
-45 -17 -93 -70 -104 -115 l-11 -41 -86 -13 c-196 -28 -409 -116 -558 -228
-146 -110 -293 -282 -367 -429 -64 -126 -113 -288 -132 -435 l-6 -48 -107 0
-108 0 -2 44 c-1 24 -9 63 -18 85 -31 78 -4 136 81 177 102 48 155 140 155
269 0 131 -56 227 -163 278 -43 20 -57 33 -72 67 -16 36 -17 47 -6 83 29 101
32 121 21 169 -14 70 -30 95 -102 164 -106 103 -177 124 -294 84 -64 -21 -68
-21 -110 -5 -37 14 -49 25 -70 68 -32 64 -77 112 -129 140 -52 27 -219 34
-280 12z m216 -165 c10 -6 32 -37 48 -69 36 -71 82 -113 156 -140 66 -25 136
-27 195 -6 75 26 97 21 157 -38 58 -59 64 -81 37 -145 -26 -61 -22 -147 11
-220 31 -69 76 -115 142 -144 23 -10 49 -28 58 -41 18 -25 21 -147 4 -178 -5
-11 -35 -31 -64 -45 -124 -59 -195 -203 -159 -324 34 -116 33 -123 -30 -186
-63 -63 -70 -64 -186 -30 -121 36 -265 -35 -324 -159 -14 -29 -34 -59 -45 -64
-31 -17 -153 -14 -178 4 -13 9 -32 37 -43 63 -27 60 -63 98 -122 128 -78 40
-131 47 -202 28 -120 -33 -120 -33 -181 28 -61 61 -67 83 -40 158 21 59 19
129 -6 195 -27 74 -69 120 -140 156 -32 16 -63 38 -69 48 -5 11 -10 53 -10 94
0 84 9 97 93 136 26 13 60 39 76 58 63 77 89 210 56 290 -27 65 -20 92 37 150
58 59 86 66 151 38 80 -33 213 -7 290 56 19 16 45 50 58 76 39 84 52 93 136
93 41 0 83 -5 94 -10z m2469 -895 l0 -575 -80 0 -80 0 0 575 0 575 80 0 80 0
0 -575z m-330 -85 l0 -490 -80 0 -80 0 0 253 c0 138 -5 268 -10 287 -11 41
-61 94 -103 109 -16 6 -77 11 -137 11 -60 0 -121 -5 -137 -11 -42 -15 -92 -68
-103 -109 -5 -19 -10 -149 -10 -287 l0 -253 -160 0 -160 0 0 25 c0 14 7 61 16
103 66 321 266 587 554 736 126 66 281 113 373 115 l37 1 0 -490z m713 455
c102 -29 205 -77 297 -136 84 -55 244 -215 299 -299 88 -136 155 -315 168
-447 l6 -63 -162 0 -161 0 0 263 c0 256 -1 265 -23 307 -37 71 -85 90 -224 90
-73 0 -125 -5 -146 -14 -42 -17 -83 -66 -97 -114 -5 -21 -10 -145 -10 -284 l0
-248 -80 0 -80 0 0 491 0 492 63 -6 c34 -3 102 -18 150 -32z m-1043 -700 l0
-245 -80 0 -80 0 0 245 0 245 80 0 80 0 0 -245z m1320 0 l0 -245 -80 0 -80 0
0 245 0 245 80 0 80 0 0 -245z m-3954 -446 c41 -43 83 -67 140 -79 51 -11 69
-9 171 21 36 11 47 10 83 -6 34 -15 47 -29 67 -72 51 -107 147 -163 278 -163
129 0 221 53 269 155 42 87 98 111 183 79 58 -22 144 -23 195 -1 20 8 57 34
81 56 42 39 47 41 111 41 l66 0 0 -84 c0 -112 6 -138 46 -185 l34 -39 0 -209
c0 -114 4 -234 10 -267 24 -148 117 -245 268 -280 l57 -13 6 -79 c12 -146 68
-300 158 -433 l42 -61 -1216 0 -1215 0 0 769 0 768 23 34 c23 34 81 79 102 79
6 0 24 -14 41 -31z m4614 -49 l0 -80 -1400 0 -1400 0 0 80 0 80 1400 0 1400 0
0 -80z m-2560 -287 l0 -38 -63 -16 c-34 -9 -70 -19 -79 -23 -16 -7 -18 -2 -18
53 l0 61 80 0 80 0 0 -37z m2148 -405 l-3 -443 -27 -80 c-41 -120 -92 -199
-193 -300 -104 -104 -204 -161 -342 -196 -76 -19 -107 -20 -450 -17 -367 3
-368 3 -446 30 -209 71 -384 235 -465 438 -47 118 -52 168 -52 603 l0 407 991
0 990 0 -3 -442z m332 381 c0 -55 -2 -60 -17 -53 -10 4 -46 14 -80 23 l-63 16
0 38 0 37 80 0 80 0 0 -61z m-2480 -349 l0 -160 -24 0 c-29 0 -82 36 -110 73
-16 21 -21 43 -21 87 0 44 5 66 21 87 28 37 81 73 110 73 l24 0 0 -160z m2414
133 c110 -81 71 -269 -59 -290 l-35 -6 0 163 0 163 35 -6 c19 -3 46 -14 59
-24z m-1965 -1241 c87 -50 158 -80 241 -101 l68 -17 -66 -49 c-77 -58 -148
-142 -194 -232 l-33 -63 -1275 0 -1276 0 -44 23 c-25 12 -55 37 -67 56 -22 32
-23 43 -23 227 l0 194 1301 0 1302 0 66 -38z m953 -144 c51 -15 126 -82 149
-133 17 -36 19 -71 19 -356 0 -287 -2 -321 -19 -372 -37 -107 -114 -192 -221
-245 l-55 -27 -404 -3 -404 -3 -23 22 c-24 22 -24 25 -24 221 0 198 0 199 25
223 l24 25 243 0 243 0 69 -105 c41 -63 73 -102 80 -98 6 4 37 24 68 45 l58
39 -75 112 -75 112 0 174 c0 196 7 232 59 292 64 76 167 106 263 77z m-467
-105 c-20 -72 -24 -118 -25 -240 l0 -133 -160 0 -160 0 6 28 c35 144 136 274
265 340 76 39 83 40 74 5z m-958 -397 c-102 -42 -162 -101 -198 -196 -10 -27
-19 -64 -19 -80 l0 -30 -455 0 -455 0 0 165 0 165 593 0 592 0 -58 -24z m282
-178 c-5 -18 -9 -54 -9 -80 l0 -48 -165 0 -165 0 6 28 c11 47 38 83 79 108 36
21 52 24 152 24 l112 0 -10 -32z m-9 -378 l0 -80 -865 0 -865 0 0 80 0 80 865
0 865 0 0 -80z"/>
<path d="M926 4605 c-98 -27 -178 -75 -256 -154 -122 -122 -170 -239 -170
-409 0 -510 619 -762 982 -401 73 73 137 190 157 287 59 286 -113 579 -390
667 -92 29 -237 33 -323 10z m249 -161 c161 -41 278 -171 304 -335 44 -270
-198 -512 -468 -468 -227 36 -381 248 -343 471 42 240 275 393 507 332z"/>
<path d="M962 4264 c-86 -43 -132 -121 -132 -221 1 -75 25 -128 83 -179 77
-68 172 -82 262 -40 115 54 170 176 133 298 -15 51 -82 126 -133 149 -61 28
-149 25 -213 -7z m156 -150 c54 -37 46 -115 -14 -140 -39 -16 -74 -7 -98 28
-24 34 -19 66 13 99 33 32 65 37 99 13z"/>
<path d="M1320 2395 l0 -575 495 0 495 0 0 80 0 80 -80 0 -80 0 0 165 0 165
-85 0 -85 0 0 -165 0 -165 -80 0 -80 0 -2 373 -3 372 -80 0 -80 0 -3 -372 -2
-373 -80 0 -80 0 0 495 0 495 -85 0 -85 0 0 -575z"/>
<path d="M330 2725 l0 -86 83 3 82 3 0 80 0 80 -82 3 -83 3 0 -86z"/>
<path d="M660 2725 l0 -85 248 2 247 3 0 80 0 80 -247 3 -248 2 0 -85z"/>
<path d="M330 2150 l0 -330 415 0 415 0 -2 328 -3 327 -412 3 -413 2 0 -330z
m660 -5 l0 -165 -245 0 -245 0 0 165 0 165 245 0 245 0 0 -165z"/>
<path d="M2954 2790 c-115 -37 -224 -170 -224 -272 l0 -38 79 0 79 0 6 32 c9
43 52 97 92 114 97 40 212 -15 230 -111 l6 -35 83 0 82 0 -8 51 c-12 73 -43
130 -100 184 -93 87 -208 113 -325 75z"/>
<path d="M3962 2795 c-69 -19 -86 -29 -139 -78 -54 -50 -92 -121 -100 -188
l-6 -49 79 0 79 0 18 50 c23 64 70 101 137 108 28 2 63 -1 80 -8 42 -17 88
-73 96 -115 l6 -35 84 0 c46 0 84 4 84 8 0 36 -37 137 -66 179 -77 113 -220
165 -352 128z"/>
<path d="M3140 2077 c0 -215 138 -380 349 -419 125 -23 262 24 356 123 81 85
108 150 113 272 l4 97 -411 0 -411 0 0 -73z m640 -106 c0 -26 -70 -99 -119
-123 -107 -55 -237 -25 -308 70 -18 24 -33 48 -33 53 0 5 96 9 230 9 134 0
230 -4 230 -9z"/>
<path d="M355 1295 c-52 -51 -15 -135 60 -135 75 0 106 86 49 138 -33 29 -78
29 -109 -3z"/>
<path d="M702 1313 c-17 -6 -42 -57 -42 -83 0 -32 44 -70 80 -70 44 0 66 14
79 50 24 69 -47 131 -117 103z"/>
</g>
</svg>
