<svg width="105" height="135" viewBox="0 0 105 135" fill="none" xmlns="http://www.w3.org/2000/svg">
<path d="M6.23285 133.762C4.44065 133.14 3.20238 132.247 2.18977 130.85C0.706667 128.802 0.553101 127.716 0.553101 119.27C0.553101 111.922 0.577832 111.561 1.12792 110.861L1.70273 110.131H37.4599H73.2172V107.773V105.416H71.9998C70.0611 105.416 69.6733 104.908 69.0787 101.588C68.7972 100.017 68.5212 98.6871 68.4653 98.6326C68.0609 98.2383 65.0511 97.1381 64.7977 97.292C64.6234 97.3978 63.5678 98.2081 62.4519 99.0927C59.479 101.449 59.4576 101.444 55.2725 97.3064C53.384 95.4395 51.7704 93.6388 51.6866 93.305C51.4611 92.4064 51.7231 91.8244 53.4154 89.4659L54.9493 87.3282L54.1959 85.5556C53.7816 84.5806 53.4301 83.7741 53.4148 83.7633C53.3996 83.7525 52.1033 83.5805 50.5341 83.3811C46.4054 82.8564 46.5922 83.167 46.5922 76.8265C46.5922 71.6646 46.5979 71.6156 47.2562 71.0978C47.6604 70.7798 48.8272 70.4407 50.2377 70.2311C53.1162 69.8034 53.5249 69.6844 53.5293 69.2731C53.5315 69.0927 53.8249 68.321 54.1817 67.5583L54.8305 66.1716L53.0225 63.8436C50.449 60.5299 50.4184 60.6588 54.8178 56.2947C57.5088 53.6254 58.5968 52.7205 59.1153 52.7205C59.5151 52.7205 60.8359 53.4366 62.229 54.4085L64.6484 56.0966L66.4129 55.3279C68.3756 54.4728 68.2267 54.786 68.6674 50.5868C68.9674 47.7293 68.9697 47.7283 75.1264 47.7283C79.7751 47.7283 80.3907 47.7819 80.7889 48.222C81.0458 48.5059 81.4368 49.9266 81.7089 51.5652C82.232 54.7144 82.0179 54.4518 84.9158 55.4997C85.9321 55.8672 85.9351 55.866 87.8261 54.3396C90.1916 52.4304 90.7893 52.1106 91.6079 52.316C92.4929 52.5382 98.9341 59.0574 99.1498 59.9493C99.3169 60.6405 99.1252 60.9804 96.1109 65.337C95.9299 65.5987 96.0724 66.2699 96.563 67.4659C97.3636 69.4175 97.3164 69.3933 101.06 69.7739C102.534 69.9238 103.12 70.1178 103.625 70.6228C104.264 71.2617 104.28 71.3951 104.28 76.2337C104.28 82.3355 104.399 82.142 100.224 82.8354L97.4243 83.3003L96.7095 85.1192L95.9948 86.9381L97.7798 89.2241C98.9562 90.7306 99.5648 91.762 99.5648 92.2489C99.5648 92.8098 98.7907 93.8122 96.3521 96.4093C93.0805 99.8936 92.0316 100.613 90.8874 100.158C90.5499 100.024 89.3438 99.2345 88.2072 98.4045L86.1407 96.8954L84.7404 97.5474C83.9703 97.906 83.1842 98.2006 82.9935 98.2021C82.8028 98.2037 82.6428 98.236 82.6378 98.2742C82.633 98.3123 82.4572 99.7121 82.2474 101.385C81.7843 105.077 81.5121 105.416 79.0107 105.416H77.3773V116.46C77.3773 128.887 77.3477 129.11 75.4052 131.316C74.7925 132.013 73.606 132.908 72.7219 133.343L71.1371 134.121L39.3812 134.184C9.79443 134.242 7.53025 134.213 6.23285 133.762ZM71.0027 129.586C71.5342 129.303 72.2499 128.661 72.5931 128.158C73.1964 127.274 73.2172 127.028 73.2172 120.767V114.291H38.9652H4.71326V120.542C4.71326 127.822 4.87607 128.463 6.9891 129.509L8.18005 130.099L39.1082 130.099C68.6776 130.099 70.0788 130.077 71.0027 129.586ZM28.7035 124.792C27.3493 124.038 27.0958 122.866 28.0303 121.678L28.6051 120.947H38.9853C48.9958 120.947 49.3854 120.967 49.9203 121.502C50.6211 122.202 50.6322 123.465 49.945 124.314L49.4151 124.969L39.3366 125.035C32.3328 125.081 29.089 125.007 28.7035 124.792ZM78.3886 98.6231C78.7236 95.5338 79.0205 95.0834 81.1256 94.4714C81.9292 94.2378 83.2994 93.6718 84.1704 93.2136C85.0413 92.7555 86.0261 92.3806 86.3587 92.3806C86.6913 92.3806 87.9378 93.0833 89.1287 93.9422L91.294 95.5037L92.9333 93.8815C93.8349 92.9893 94.5726 92.1551 94.5726 92.0278C94.5726 91.9005 93.8862 90.9468 93.0472 89.9084C92.1081 88.746 91.5218 87.7539 91.5218 87.3268C91.5218 86.9453 91.8794 85.8358 92.3165 84.8614C92.7536 83.8869 93.3221 82.444 93.5798 81.6549C93.8375 80.8658 94.2269 80.072 94.4452 79.8909C94.6634 79.7097 96.0294 79.3675 97.4807 79.1303L100.12 78.6991V76.2748V73.8506L98.6634 73.6714C94.0714 73.1062 94.253 73.2064 93.3633 70.7478C93.0045 69.7563 92.381 68.294 91.9777 67.4982C91.5744 66.7025 91.244 65.8288 91.2434 65.5568C91.2429 65.2848 91.9527 64.0261 92.8209 62.7597L94.3995 60.4572L92.7065 58.7642L91.0135 57.0712L88.8745 58.7786C86.5384 60.6434 85.8438 60.8268 84.4159 59.9561C83.9398 59.6658 82.6918 59.1157 81.6425 58.7336C80.5932 58.3516 79.525 57.9555 79.2688 57.8536C78.6824 57.6203 78.3502 56.6716 77.919 53.9991L77.5785 51.8884H75.1205C73.7686 51.8884 72.6625 51.9853 72.6625 52.1037C72.6625 52.2221 72.53 53.3766 72.368 54.6691C72.0395 57.2904 71.5337 58.1129 70.0622 58.4186C69.5856 58.5175 68.1655 59.0871 66.9064 59.6842C64.7156 60.7232 64.5785 60.7525 63.717 60.366C63.2219 60.1438 62.0571 59.4008 61.1286 58.7149L59.4405 57.4677L57.7413 59.1849L56.0421 60.9021L57.6843 62.9822C59.5469 65.3414 59.6715 65.9373 58.6776 67.7314C58.3079 68.3989 57.7398 69.774 57.4152 70.7872C57.0907 71.8003 56.6132 72.8196 56.3542 73.0523C56.0951 73.285 55.0719 73.6146 54.0804 73.7847C53.0889 73.9549 51.9345 74.1624 51.515 74.2457L50.7523 74.3973V76.8386V79.2799L53.0643 79.4725C55.9422 79.7122 56.5886 80.0262 57.0901 81.4286C57.3077 82.0371 57.9701 83.6125 58.5619 84.9295C59.8004 87.6851 59.8013 87.678 57.848 90.424C57.1487 91.4072 56.5765 92.3393 56.5765 92.4954C56.5765 92.8701 59.3875 95.7092 59.7565 95.7072C59.9143 95.7061 60.9024 95.0199 61.9523 94.1818C64.1408 92.4349 64.7905 92.3179 66.7781 93.3128C67.4976 93.6729 68.93 94.2452 69.9612 94.5844C70.9924 94.9236 71.9491 95.4123 72.0872 95.6702C72.2252 95.9282 72.4777 96.9473 72.6481 97.9348C73.2904 101.656 72.9246 101.256 75.6822 101.256H78.1032L78.3886 98.6231ZM73.2297 87.3628C69.9422 86.7184 66.8763 84.2666 65.3685 81.0763C64.566 79.3783 64.4855 78.9651 64.4917 76.572C64.5004 73.1673 65.1709 71.3821 67.3078 69.074C71.9363 64.0746 79.8188 64.3394 84.0046 69.6348C89.1828 76.1858 85.5081 85.8403 77.257 87.3622C75.4007 87.7046 74.9738 87.7048 73.2297 87.3628ZM73.267 78.6274L73.3558 74.3039L74.1576 73.615C75.0313 72.8641 75.9794 72.9021 76.892 73.7245C77.3154 74.1061 77.3773 74.7227 77.3773 78.5564C77.3773 81.4398 77.4774 82.9509 77.6684 82.9509C78.661 82.9509 80.8326 81.0429 81.6182 79.4805C82.3304 78.0643 82.4701 76.2271 81.9905 74.5881C80.131 68.2342 71.291 67.9632 68.914 74.1872C67.8378 77.0053 68.9878 80.5517 71.493 82.1404C72.1959 82.5862 72.8626 82.9509 72.9746 82.9509C73.0865 82.9509 73.2181 81.0054 73.267 78.6274ZM1.74994 104.033C1.4167 103.896 1.00969 103.532 0.845478 103.225C0.634776 102.831 0.568226 88.5635 0.619342 54.7436L0.691772 6.82007L1.28783 5.53065C2.04824 3.88571 3.6862 2.24775 5.428 1.39048L6.79333 0.718506H38.9652H71.1371L72.7219 1.49677C73.606 1.93092 74.7925 2.8268 75.4052 3.5229C77.3715 5.75675 77.3773 5.80435 77.3773 19.7458V32.1568L76.6466 32.7316C75.8129 33.3873 75.4592 33.4315 74.5088 32.9985C73.3618 32.4758 73.2172 31.686 73.2172 25.9437V20.5486H38.9652H4.71326V61.7034C4.71326 100.495 4.68539 102.891 4.22791 103.432C3.64677 104.119 2.58265 104.377 1.74994 104.033ZM73.2172 11.9919C73.2172 7.88839 73.1756 7.53454 72.5931 6.68126C72.2499 6.17845 71.5342 5.53597 71.0027 5.25352C70.0788 4.76253 68.6746 4.73999 39.0073 4.73999H7.97823L6.87181 5.36184C5.01303 6.40652 4.71326 7.35859 4.71326 12.2172V16.3884H38.9652H73.2172V11.9919ZM37.4599 11.7749C36.8025 10.939 36.7598 10.5881 37.1985 9.6253C37.7365 8.44449 38.5828 8.30644 44.719 8.39856C49.8638 8.47581 50.4748 8.53552 51.0012 9.01247C51.7623 9.70205 51.7768 11.2037 51.0297 11.9509C50.508 12.4726 50.1052 12.5056 44.2549 12.5056H38.0348L37.4599 11.7749ZM31.1484 60.2128C30.5021 59.946 29.9515 59.1291 29.9515 58.437C29.9515 57.7593 42.4238 26.5642 42.9091 26.0279C43.9433 24.8852 46.3148 25.8086 46.3148 27.354C46.3148 28.1666 34.0103 59.3238 33.4881 59.8335C32.99 60.3196 31.8535 60.5038 31.1484 60.2128ZM23.5726 53.4259C23.1913 53.2159 20.8512 50.9146 18.3724 48.3119C14.8167 44.5783 13.8656 43.4207 13.8656 42.8266C13.8656 42.2212 14.8386 41.0963 18.8286 37.0891C23.1265 32.7725 23.9065 32.1046 24.6492 32.1046C25.8419 32.1046 26.6234 32.8908 26.6234 34.0906C26.6234 34.9732 26.2549 35.438 22.7543 38.9705L18.8852 42.8748L22.7543 46.7945C26.2632 50.3493 26.6234 50.8058 26.6234 51.6972C26.6234 52.4288 26.4365 52.8272 25.8927 53.255C25.0472 53.92 24.5382 53.9575 23.5726 53.4259ZM51.9878 53.1491C50.693 51.8543 50.9655 51.3131 54.9818 47.2036C57.003 45.1355 58.7786 43.353 58.9276 43.2425C59.0788 43.1304 57.4533 41.27 55.2528 39.0366C51.2752 34.9995 50.9655 34.5189 51.4793 33.1801C51.7826 32.3897 53.0909 31.8936 54.0191 32.2172C54.5057 32.3868 56.7162 34.4623 59.4522 37.3185C63.5156 41.5605 64.0648 42.243 64.0648 43.0505C64.0648 43.8684 63.5341 44.4977 59.1334 48.8984C53.759 54.2728 53.353 54.5143 51.9878 53.1491Z" fill="#1C8EA9"/>
</svg>
