<svg width="161" height="126" viewBox="0 0 161 126" fill="none" xmlns="http://www.w3.org/2000/svg">
<path d="M10.6343 125.649C5.85747 124.709 1.94775 120.84 0.930625 116.046C0.431979 113.696 0.431979 13.2705 0.930625 10.9203C1.97465 5.99984 5.84976 2.25177 10.8791 1.29797C13.1667 0.864139 147.992 0.864139 150.279 1.29797C155.309 2.25177 159.184 5.99984 160.228 10.9203C160.727 13.2705 160.727 113.696 160.228 116.046C159.184 120.966 155.309 124.714 150.279 125.668C148.219 126.059 12.6225 126.04 10.6343 125.649ZM150.737 120.778C151.635 120.472 152.787 119.729 153.556 118.96C156.067 116.449 155.892 120.111 155.892 70.1461V25.6706H80.5793H5.26676V70.1461C5.26676 120.122 5.0906 116.448 7.60792 118.966C10.0917 121.449 3.57875 121.243 80.4455 121.271C143.679 121.294 149.34 121.254 150.737 120.778ZM91.3884 110.638C88.6337 109.982 86.3668 107.569 86.0018 104.906L85.8068 103.483H84.4584C80.7985 103.483 78.0165 102.04 76.6331 99.4254C75.8935 98.0272 75.8918 97.9983 75.8918 87.0035V75.9831H73.0793H70.2667V80.6092C70.2667 84.9646 70.2192 85.3307 69.4544 86.8656C68.4463 88.8886 66.5715 90.2536 64.1987 90.6922C63.1223 90.8912 54.8648 90.9748 41.9243 90.9176C22.8956 90.8336 21.2672 90.7847 20.1105 90.2634C18.5296 89.5508 17.2718 88.3614 16.41 86.7643C15.7523 85.5455 15.7355 85.2142 15.7355 73.4831C15.7355 61.6749 15.7483 61.4279 16.4249 60.163C17.2047 58.7052 18.6919 57.34 20.1786 56.717C20.9902 56.3768 25.3898 56.2969 42.9911 56.3024C63.4731 56.3088 64.8739 56.3442 66.048 56.8827C66.7355 57.1981 67.6978 57.86 68.1864 58.3537C69.9273 60.1127 70.0984 60.753 70.2667 66.1393L70.423 71.1393H73.0793H75.7355L75.8918 59.8893L76.048 48.6393L76.8891 47.2085C78.3058 44.7989 81.059 43.4831 84.6844 43.4831C85.7988 43.4831 85.8917 43.4156 85.8917 42.6069C85.8917 42.125 86.2573 40.9972 86.7042 40.1005C87.7111 38.0799 89.5874 36.7124 91.9531 36.2751C93.0289 36.0762 102.162 35.9932 116.728 36.0497C138.174 36.133 139.886 36.179 141.048 36.7028C142.629 37.4154 143.887 38.6047 144.748 40.2018C145.351 41.3193 145.423 41.9348 145.423 46.0076C145.423 50.5351 145.417 50.5728 144.475 52.0962C143.954 52.9393 142.899 54.0533 142.132 54.5717L140.735 55.5143L116.204 55.6023C89.1179 55.6994 90.1974 55.7713 88.1107 53.7312C86.857 52.5055 86.2311 51.3247 85.9372 49.6311L85.7109 48.3268L83.9255 48.3347C82.4009 48.3415 82.0148 48.468 81.2816 49.2009L80.423 50.0591V60.5992V71.1393H83.0706H85.7182L85.9409 69.8351C86.2295 68.1445 86.8548 66.9627 88.1107 65.7349C90.1951 63.6971 89.116 63.7688 116.256 63.8648L140.838 63.9518L142.186 64.899C142.927 65.4199 143.958 66.5339 144.478 67.3745C145.417 68.8924 145.423 68.934 145.423 73.4586C145.423 77.5314 145.351 78.1468 144.748 79.2643C143.887 80.8614 142.629 82.0508 141.048 82.7634C139.886 83.2872 138.174 83.3331 116.728 83.4164C102.162 83.473 93.0289 83.3899 91.9531 83.191C89.5874 82.7537 87.7111 81.3863 86.7042 79.3656C86.2573 78.469 85.8917 77.3411 85.8917 76.8592V75.9831H83.0792H80.2667L80.2686 85.7487C80.2698 91.6835 80.4007 95.9838 80.6026 96.7112C80.9999 98.1419 82.4014 98.8826 84.4299 98.734C85.681 98.6423 85.7284 98.5985 85.9425 97.3351C86.2296 95.6413 86.8436 94.4993 88.1308 93.2645C90.2775 91.2052 89.0136 91.2956 115.664 91.2956H139.831L141.484 92.119C144.694 93.7188 145.742 96.3067 145.523 102.096C145.353 106.613 144.36 108.534 141.36 110.152C140.114 110.825 140.049 110.827 116.36 110.878C102.558 110.908 92.0986 110.808 91.3884 110.638ZM140.024 105.428C140.645 104.807 140.749 104.339 140.844 101.743C140.971 98.2872 140.821 97.4827 139.892 96.6167C139.221 95.9918 138.886 95.9831 115.719 95.9831C87.6152 95.9831 90.5792 95.4123 90.5792 100.824C90.5792 102.774 90.6706 104.608 90.7823 104.898C91.3057 106.262 91.6664 106.281 116.118 106.208L139.312 106.139L140.024 105.428ZM64.773 85.3817L65.5793 84.6241V73.4831V62.342L64.773 61.5844L63.9667 60.8268L43.7574 60.7316C29.7902 60.6657 23.1866 60.7418 22.3779 60.9779C20.3045 61.5833 20.2668 61.806 20.2668 73.4472C20.2668 79.51 20.3945 84.0908 20.5769 84.5705C21.2312 86.2915 21.1285 86.2842 43.4448 86.2087L63.9667 86.1393L64.773 85.3817ZM139.185 78.3419C140.594 77.7531 140.892 76.8997 140.892 73.4472C140.892 69.9477 140.457 68.9549 138.717 68.4866C137.887 68.2629 130.102 68.1827 114.838 68.2407L92.1918 68.3268L91.3855 69.0844C90.6083 69.8147 90.5792 69.9732 90.5792 73.4831C90.5792 76.8611 90.63 77.1703 91.2824 77.7638C91.6691 78.1157 92.1964 78.4806 92.4542 78.5749C92.7121 78.6691 103.088 78.7573 115.511 78.7709C134.588 78.7917 138.268 78.725 139.185 78.3419ZM139.471 50.7889C140.453 50.4124 140.892 48.9377 140.892 46.0189C140.892 44.4747 140.752 42.8437 140.581 42.3945C139.912 40.6345 140.167 40.651 115.131 40.7428L92.1919 40.8268L91.3856 41.5844C90.6094 42.3137 90.5792 42.4765 90.5792 45.9393C90.5792 49.2026 90.6423 49.6037 91.2587 50.2598L91.9382 50.9831H115.452C128.384 50.9831 139.193 50.8957 139.471 50.7889ZM155.892 16.6637C155.892 11.4729 155.474 9.9237 153.556 8.0061C151.009 5.45907 157.618 5.67057 80.5793 5.67057C3.54059 5.67057 10.1493 5.45907 7.60228 8.0061C5.68468 9.9237 5.26676 11.4729 5.26676 16.6637V20.9831H80.5793H155.892V16.6637ZM11.3463 14.9035C10.4932 14.0504 10.4123 13.5663 10.9323 12.4251C11.94 10.2134 15.2668 11.0205 15.2668 13.4767C15.2668 14.3907 13.8995 15.6706 12.923 15.6706C12.4777 15.6706 11.7682 15.3254 11.3463 14.9035ZM19.2338 15.3233C18.3703 14.821 17.9869 13.5229 18.4045 12.5149C19.0923 10.8544 21.6103 10.6561 22.4353 12.1976C23.5536 14.2872 21.2758 16.5112 19.2338 15.3233ZM26.7338 15.3233C25.2498 14.46 25.4825 11.9828 27.1111 11.3083C29.4258 10.3495 31.3627 13.282 29.5435 14.9911C28.7672 15.7204 27.6445 15.8531 26.7338 15.3233ZM36.7338 15.3233C35.3422 14.5138 35.5186 12.0208 37.0158 11.3386C38.1275 10.8321 133.026 10.8296 134.137 11.3361C135.723 12.0585 135.864 14.5369 134.365 15.3391C133.5 15.8018 37.5296 15.7863 36.7338 15.3233ZM141.539 14.8472C140.732 13.8208 140.715 12.8329 141.489 11.8771C142.028 11.2108 142.378 11.1288 145.1 11.0304C148.474 10.9086 149.685 11.2381 150.226 12.4251C150.746 13.5663 150.665 14.0504 149.812 14.9035C149.091 15.6247 148.84 15.6706 145.616 15.6706C142.284 15.6706 142.169 15.6473 141.539 14.8472Z" fill="#1C8EA9"/>
</svg>
