<svg width="98" height="70" viewBox="0 0 98 70" fill="none" xmlns="http://www.w3.org/2000/svg">
<g clip-path="url(#clip0_46_2)">
<rect width="98" height="70" fill="none"/>
<path d="M24.362 19.1612C24.362 17.3065 23.6591 13.9161 22.8718 10.7C21.6367 5.65482 17.8117 0.437802 12.7383 1.55129V1.55129C9.34804 2.29538 2.79232 4.71879 1.59891 19.6572C-0.580669 46.9401 26.5274 67.3586 30.4159 68.0223C33.3219 68.5184 36.47 68.7664 39.6181 68.5184C42.5154 68.2901 46.8829 64.3019 47.6094 63.0618C48.3358 61.8217 48.578 59.5894 48.3358 57.8532C48.0937 56.1171 38.8916 45.7 35.7435 46.196V46.196C30.175 47.0735 24.262 48.3684 21.3537 43.5394C17.2188 36.6738 14.8203 27.671 15.1599 26.1059C15.3985 25.0063 16.636 24.0872 18.0331 23.4377C20.3935 22.3402 24.362 21.7643 24.362 19.1612V19.1612Z" fill="#115B6A"/>
<path d="M28.7207 5.27169H96.5256M96.5256 5.27169V60.5815M96.5256 5.27169L67.7085 31.0664M96.5256 60.5815H54.874M96.5256 60.5815L67.7085 31.0664M67.7085 31.0664V31.0664C62.8957 35.9959 55.1321 36.4805 49.7435 32.1879L48.3357 31.0664M29.9315 14.6967L48.3357 31.0664M48.3357 31.0664L39.8601 39.7473M24.362 19.1612C24.362 17.3065 23.6591 13.9161 22.8718 10.7C21.6367 5.65482 17.8117 0.437802 12.7383 1.55129V1.55129C9.34804 2.29538 2.79232 4.71879 1.59891 19.6572C-0.580669 46.9401 26.5274 67.3586 30.4159 68.0223C33.3219 68.5184 36.47 68.7664 39.6181 68.5184C42.5154 68.2901 46.8829 64.3019 47.6094 63.0618C48.3358 61.8217 48.578 59.5894 48.3358 57.8532C48.0937 56.1171 38.8916 45.7 35.7435 46.196V46.196C30.175 47.0735 24.262 48.3684 21.3537 43.5394C17.2188 36.6738 14.8203 27.671 15.1599 26.1059C15.3985 25.0063 16.636 24.0872 18.0331 23.4377C20.3935 22.3402 24.362 21.7643 24.362 19.1612V19.1612Z" stroke="#115B6A" stroke-width="2"/>
</g>
<defs>
<clipPath id="clip0_46_2">
<rect width="98" height="70" fill="white"/>
</clipPath>
</defs>
</svg>
