<svg width="100" height="100" viewBox="0 0 100 100" fill="none" xmlns="http://www.w3.org/2000/svg">
<path d="M78.1166 97.303C76.3912 97.0282 74.9392 96.2413 73.7827 94.9541C73.5644 94.7111 70.701 91.4203 67.4196 87.6412C64.1382 83.8621 61.4288 80.7643 61.3988 80.7572C61.3687 80.7501 61.2063 80.8348 61.0379 80.9454C60.2367 81.4714 58.5782 82.3827 57.6096 82.8293C54.0889 84.4523 50.7398 85.3275 46.6998 85.6801C45.8893 85.7509 42.8174 85.7512 42.0015 85.6805C37.7979 85.3168 34.2226 84.3481 30.6593 82.6074C23.2894 79.0071 17.7086 72.7156 15.1294 65.0998C13.0384 58.9253 13.0573 52.2625 15.1835 46.0452C16.0186 43.6033 17.2834 41.0928 18.7744 38.9179C19.4746 37.8966 20.4706 36.6189 21.0847 35.9542C21.2258 35.8015 21.2508 35.7891 21.3133 35.841C21.5134 36.0071 25.6307 39.5432 25.69 39.5999C25.7545 39.6616 25.7292 39.7019 25.3404 40.1586C21.6068 44.5445 19.5986 49.975 19.6012 55.6783C19.6025 58.6782 20.1407 61.5229 21.2362 64.3203C23.0836 69.0381 26.4488 73.11 30.8221 75.9195C36.0095 79.252 42.3298 80.5461 48.4826 79.5354C55.1842 78.4346 61.1647 74.6279 64.9797 69.0348C65.8532 67.7541 66.7706 66.0578 67.3374 64.6751C69.2969 59.8948 69.6428 54.7029 68.3394 49.6346C68.1217 48.7882 67.5912 47.2304 67.2358 46.3939C66.2914 44.1708 64.9149 41.9491 63.3693 40.1528C63.153 39.9014 62.9772 39.6799 62.9788 39.6605C62.9822 39.6154 67.4154 35.8104 67.4644 35.8104C67.5122 35.8104 68.0237 36.3952 68.571 37.0757C71.8435 41.1449 73.9859 45.9802 74.7808 51.0909C75.024 52.6547 75.1006 53.5922 75.1227 55.2751C75.1409 56.6666 75.1106 57.4453 74.9933 58.5978C74.4887 63.5579 72.7713 68.2405 69.9373 72.3843C69.7078 72.7199 69.5211 73.0087 69.5223 73.0262C69.5235 73.0436 71.0848 74.3501 72.9917 75.9295C82.567 83.8599 83.9931 85.0456 84.2583 85.2973C85.6305 86.5993 86.4267 88.4475 86.4251 90.3269C86.424 91.4597 86.1644 92.5043 85.6245 93.5467C84.6483 95.4313 82.8286 96.785 80.6575 97.2416C80.1114 97.3565 78.6712 97.3913 78.1166 97.303ZM31.1049 37.9365C27.8044 34.7592 25.1025 32.1503 25.1007 32.139C25.0956 32.1065 26.5193 31.1244 27.2564 30.652C30.8384 28.3564 34.6426 26.7821 38.4342 26.0263C38.8832 25.9368 39.2624 25.8772 39.2769 25.8939C39.6426 26.3154 44.3333 31.1535 44.3663 31.1431C44.3923 31.1349 45.4716 29.9801 46.7647 28.5767C48.0578 27.1734 49.1526 25.9906 49.1977 25.9482C49.278 25.8728 49.294 25.874 49.9718 26.0068C53.9742 26.7907 57.924 28.3653 61.4667 30.5893C62.0791 30.9738 63.142 31.7113 63.5051 32.0037L63.6681 32.135L57.7534 37.921C54.5003 41.1034 51.8251 43.7071 51.8084 43.7071C51.7918 43.7071 51.6486 43.6251 51.4901 43.5248C50.1936 42.7046 48.5664 42.1656 46.7837 41.9657C46.0402 41.8824 44.4643 41.8819 43.6468 41.9646C41.6848 42.1635 39.6308 42.6798 37.8309 43.4267C37.5061 43.5615 37.2101 43.6811 37.1731 43.6926C37.1263 43.707 35.281 41.9567 31.1049 37.9365ZM43.4487 22.5146C41.0625 22.2735 38.9708 21.3365 37.298 19.7594C36.3994 18.9121 35.7595 18.0515 35.2023 16.9405C33.6842 13.9136 33.8458 10.3423 35.6322 7.44352C36.1808 6.55329 37.0198 5.60225 37.8695 4.90754C39.3469 3.69963 41.3475 2.87865 43.2923 2.68222C43.9933 2.61141 45.418 2.65336 46.0496 2.76341C48.1771 3.13411 50.0197 4.05686 51.505 5.49549C54.1614 8.06834 55.1671 11.7829 54.1594 15.2996C53.6981 16.9096 52.7851 18.4312 51.5638 19.6254C50.07 21.0863 48.1789 22.0424 46.0706 22.4028C45.5699 22.4884 45.299 22.509 44.5394 22.5192C44.0318 22.526 43.541 22.5239 43.4487 22.5146Z" fill="#188FA7"/>
</svg>
